<svg xmlns="http://www.w3.org/2000/svg" xmlns:xlink="http://www.w3.org/1999/xlink">
  <defs>
    <radialGradient gradientUnits="userSpaceOnUse" r="819.2" cx="0" cy="0" spreadMethod="pad" gradientTransform="matrix(0.030487060546875 -0.0114898681640625 0.0084228515625 0.0223541259765625 33.5 29)" id="gradient0">
      <stop offset="0" stop-color="#33FF00" stop-opacity="0"/>
      <stop offset="0.6274509803921569" stop-color="#33FF00" stop-opacity="0"/>
      <stop offset="1" stop-color="#33FF00"/>
    </radialGradient>
  </defs>
  <g>
    <path stroke="none" fill="#003300" fill-opacity="0.4" d="M49.75 38.1 L47.3 40.8 Q42.1 45.5 34.25 46.1 L30.2 46.8 Q28.25 47.35 23.65 49.05 20.55 50.05 17.1 49.15 13.65 48.25 11.1 46 8.5 43.75 7.95 40.7 7.25 35.9 8.75 33.55 10.25 31.2 12.2 29.8 L13.1 29.1 12.75 29.55 Q11.25 31.9 11.95 36.7 12.5 39.75 15.1 42 17.65 44.25 21.1 45.15 24.55 46.05 27.65 45.05 32.25 43.35 34.2 42.8 L38.25 42.1 Q44.95 41.6 49.75 38.1 M22.15 15 Q19.85 18.15 18.75 22.5 18.1 24.4 16.2 25.8 L14.3 27.55 14.75 26.5 Q16.5 19.45 21.5 15.45 L22.15 15"/>
    <path stroke="none" fill="#00FF00" fill-opacity="0.5019607843137255" d="M55.2 26.3 Q55 33.55 49.8 38.3 44.6 43 36.75 43.6 34.6 43.65 32.7 44.3 30.75 44.85 26.15 46.55 23.05 47.55 19.6 46.65 16.15 45.75 13.6 43.5 11 41.25 10.45 38.2 9.75 33.4 11.25 31.05 12.75 28.7 14.7 27.3 16.6 25.9 17.25 24 19 16.95 24 12.95 29.05 9 36.75 8.95 44.6 9.1 49.85 14 55 18.9 55.2 26.3"/>
    <path stroke="none" fill="url(#gradient0)" d="M55.2 26.3 Q55 33.55 49.8 38.3 44.6 43 36.75 43.6 34.6 43.65 32.7 44.3 30.75 44.85 26.15 46.55 23.05 47.55 19.6 46.65 16.15 45.75 13.6 43.5 11 41.25 10.45 38.2 9.75 33.4 11.25 31.05 12.75 28.7 14.7 27.3 16.6 25.9 17.25 24 19 16.95 24 12.95 29.05 9 36.75 8.95 44.6 9.1 49.85 14 55 18.9 55.2 26.3"/>
    <path stroke="none" fill="#FFFFFF" fill-opacity="0.6" d="M50.85 16.75 Q55.1 21.9 53.35 28.1 53.65 22.9 50.2 18.45 45.35 12.3 37.6 10.75 45.65 10.4 50.85 16.75 M15.45 29.1 L15.1 28.8 Q15.65 27.45 17.2 26.8 L17.85 26.6 17.95 26.5 18 26.45 19.3 26.2 19.45 26.2 19.5 26.35 19.55 26.45 Q17.8 27 16.55 28.3 L15.45 29.1"/>
  </g>
</svg>