<svg xmlns="http://www.w3.org/2000/svg" xmlns:xlink="http://www.w3.org/1999/xlink">
  <defs>
    <radialGradient gradientUnits="userSpaceOnUse" r="819.2" cx="0" cy="0" spreadMethod="pad" gradientTransform="matrix(0.0285491943359375 -0.0107574462890625 0.0078887939453125 0.02093505859375 33.5 29)" id="gradient0">
      <stop offset="0" stop-color="#33FF00" stop-opacity="0"/>
      <stop offset="0.6274509803921569" stop-color="#33FF00" stop-opacity="0"/>
      <stop offset="1" stop-color="#33FF00"/>
    </radialGradient>
  </defs>
  <g>
    <path stroke="none" fill="#003300" fill-opacity="0.4" d="M48.5 37.6 L46.15 40.25 Q41.2 44.65 33.9 45.2 31.85 45.25 30.05 45.85 L23.9 47.95 17.8 48.1 Q14.55 47.2 12.15 45.1 9.7 43 9.15 40.15 8.55 35.6 9.95 33.4 11.35 31.2 13.15 29.85 L14.4 28.75 13.95 29.4 Q12.55 31.6 13.15 36.15 13.7 39 16.15 41.1 18.55 43.2 21.8 44.1 L27.9 43.95 34.05 41.85 Q35.85 41.25 37.9 41.2 44 40.75 48.5 37.6 M22.65 15.85 Q20.55 18.8 19.55 22.8 18.95 24.55 17.15 25.85 16 26.7 15.05 27.9 L15.55 26.8 Q17.2 20.15 21.9 16.4 L22.65 15.85"/>
    <path stroke="none" fill="#00FF00" fill-opacity="0.5019607843137255" d="M53.7 26.45 Q53.5 33.25 48.65 37.75 43.7 42.15 36.4 42.7 34.35 42.75 32.55 43.35 L26.4 45.45 20.3 45.6 Q17.05 44.7 14.65 42.6 12.2 40.5 11.65 37.65 11.05 33.1 12.45 30.9 13.85 28.7 15.65 27.35 17.45 26.05 18.05 24.3 19.7 17.65 24.4 13.9 29.15 10.15 36.4 10.1 43.7 10.25 48.65 14.9 53.5 19.5 53.7 26.45"/>
    <path stroke="none" fill="url(#gradient0)" d="M53.7 26.45 Q53.5 33.25 48.65 37.75 43.7 42.15 36.4 42.7 34.35 42.75 32.55 43.35 L26.4 45.45 20.3 45.6 Q17.05 44.7 14.65 42.6 12.2 40.5 11.65 37.65 11.05 33.1 12.45 30.9 13.85 28.7 15.65 27.35 17.45 26.05 18.05 24.3 19.7 17.65 24.4 13.9 29.15 10.15 36.4 10.1 43.7 10.25 48.65 14.9 53.5 19.5 53.7 26.45"/>
    <path stroke="none" fill="#FFFFFF" fill-opacity="0.6" d="M49.1 17.55 Q53 22.25 51.4 27.85 51.7 23.1 48.55 19.1 44.1 13.5 37.05 12.1 44.4 11.8 49.1 17.55 M16.95 28.75 L16.6 28.5 Q17.1 27.25 18.5 26.7 L19.1 26.5 19.2 26.4 19.25 26.35 20.4 26.15 20.55 26.15 20.6 26.25 20.65 26.35 Q19.05 26.9 17.95 28.05 L16.95 28.75"/>
  </g>
</svg>