<svg xmlns="http://www.w3.org/2000/svg" xmlns:xlink="http://www.w3.org/1999/xlink">
  <defs>
    <radialGradient gradientUnits="userSpaceOnUse" r="819.2" cx="0" cy="0" spreadMethod="pad" gradientTransform="matrix(0.0285491943359375 -0.0107574462890625 0.0078887939453125 0.02093505859375 33.5 29)" id="gradient0">
      <stop offset="0" stop-color="#33FF00" stop-opacity="0"/>
      <stop offset="0.6274509803921569" stop-color="#33FF00" stop-opacity="0"/>
      <stop offset="1" stop-color="#33FF00"/>
    </radialGradient>
  </defs>
  <g>
    <path stroke="none" fill="#003300" fill-opacity="0.4" d="M46.4 40.4 Q41.4 44.9 33.95 45.45 31.85 45.5 30.05 46.1 28.2 46.65 23.8 48.25 L17.55 48.4 Q14.25 47.5 11.8 45.35 9.35 43.2 8.8 40.3 8.15 35.7 9.6 33.45 11 31.2 12.85 29.85 L13.95 28.9 13.6 29.45 Q12.15 31.7 12.8 36.3 13.35 39.2 15.8 41.35 18.25 43.5 21.55 44.4 L27.8 44.25 34.05 42.1 Q35.85 41.5 37.95 41.45 44.25 40.95 48.8 37.7 L46.4 40.4 M21.75 16.15 L22.4 15.65 Q20.25 18.65 19.3 22.7 18.7 24.5 16.85 25.85 15.75 26.65 14.8 27.8 L15.3 26.7 Q16.95 19.95 21.75 16.15"/>
    <path stroke="none" fill="#00FF00" fill-opacity="0.5019607843137255" d="M48.9 14.65 Q53.85 19.35 54.05 26.4 53.85 33.35 48.9 37.9 43.9 42.4 36.45 42.95 34.35 43 32.55 43.6 L26.3 45.75 20.05 45.9 Q16.75 45 14.3 42.85 11.85 40.7 11.3 37.8 10.65 33.2 12.1 30.95 13.5 28.7 15.35 27.35 17.2 26 17.8 24.2 19.45 17.45 24.25 13.65 29.1 9.85 36.45 9.8 43.9 9.95 48.9 14.65"/>
    <path stroke="none" fill="url(#gradient0)" d="M48.9 14.65 Q53.85 19.35 54.05 26.4 53.85 33.35 48.9 37.9 43.9 42.4 36.45 42.95 34.35 43 32.55 43.6 L26.3 45.75 20.05 45.9 Q16.75 45 14.3 42.85 11.85 40.7 11.3 37.8 10.65 33.2 12.1 30.95 13.5 28.7 15.35 27.35 17.2 26 17.8 24.2 19.45 17.45 24.25 13.65 29.1 9.85 36.45 9.8 43.9 9.95 48.9 14.65"/>
  </g>
</svg>