<svg xmlns="http://www.w3.org/2000/svg" xmlns:xlink="http://www.w3.org/1999/xlink">
  <defs>
    <radialGradient gradientUnits="userSpaceOnUse" r="819.2" cx="0" cy="0" spreadMethod="pad" gradientTransform="matrix(0.0319976806640625 -0.0238189697265625 0.0184478759765625 0.0247650146484375 31 28)" id="gradient0">
      <stop offset="0" stop-color="#33FF00" stop-opacity="0"/>
      <stop offset="0.6274509803921569" stop-color="#33FF00" stop-opacity="0"/>
      <stop offset="1" stop-color="#33FF00"/>
    </radialGradient>
  </defs>
  <g>
    <path stroke="none" fill="#003300" fill-opacity="0.4" d="M52.1 41.6 L52.45 41.35 Q50.85 43.65 48.55 45.3 L48.1 45.6 Q44.6 47.9 40.4 47.8 L32.35 48.65 31.95 48.75 27.7 49.85 Q24.65 50.9 20.3 52.85 16.6 54.4 12.95 52.8 L12.75 52.7 Q9.25 51.05 6.9 47.8 L6.55 47.35 Q4.35 44.1 4.35 40.5 L4.35 40.45 Q4.55 34.9 6.2 32.2 L6.3 32.1 Q7.95 29.5 9.75 27.6 L9.85 27.55 Q11.45 25.8 12.05 23.15 L12.15 22.45 Q13.25 16.05 17.5 11.8 L19.65 10 Q17 13.6 16.15 18.45 L16.05 19.15 Q15.45 21.8 13.85 23.55 L13.75 23.6 Q11.95 25.5 10.3 28.1 L10.2 28.2 Q8.55 30.9 8.35 36.45 L8.35 36.5 Q8.35 40.1 10.55 43.35 L10.9 43.8 Q13.25 47.05 16.75 48.7 L16.95 48.8 Q20.6 50.4 24.3 48.85 28.65 46.9 31.7 45.85 33.8 45.1 35.95 44.75 L36.35 44.65 44.4 43.8 Q48.6 43.9 52.1 41.6"/>
    <path stroke="none" fill="#00FF00" fill-opacity="0.5019607843137255" d="M49 13.5 L51.05 15 53.25 17.15 Q55.35 19.45 56.75 22.3 58.15 25.2 58.25 28.6 L58.25 29.15 Q58.05 33.25 56.15 36.9 54.25 40.5 51.05 42.8 L50.6 43.1 Q47.1 45.4 42.9 45.3 L34.85 46.15 34.45 46.25 30.2 47.35 Q27.15 48.4 22.8 50.35 19.1 51.9 15.45 50.3 L15.25 50.2 Q11.75 48.55 9.4 45.3 L9.05 44.85 Q6.85 41.6 6.85 38 L6.85 37.95 Q7.05 32.4 8.7 29.7 L8.8 29.6 Q10.45 27 12.25 25.1 L12.35 25.05 Q13.95 23.3 14.55 20.65 L14.65 19.95 Q15.75 13.55 20 9.3 L22.3 7.35 Q25.95 4.85 30.85 4.35 34.25 4.2 37.45 5.5 L38.3 5.85 Q41.8 7.6 44.6 9.95 L49 13.5"/>
    <path stroke="none" fill="url(#gradient0)" d="M49 13.5 L51.05 15 53.25 17.15 Q55.35 19.45 56.75 22.3 58.15 25.2 58.25 28.6 L58.25 29.15 Q58.05 33.25 56.15 36.9 54.25 40.5 51.05 42.8 L50.6 43.1 Q47.1 45.4 42.9 45.3 L34.85 46.15 34.45 46.25 30.2 47.35 Q27.15 48.4 22.8 50.35 19.1 51.9 15.45 50.3 L15.25 50.2 Q11.75 48.55 9.4 45.3 L9.05 44.85 Q6.85 41.6 6.85 38 L6.85 37.95 Q7.05 32.4 8.7 29.7 L8.8 29.6 Q10.45 27 12.25 25.1 L12.35 25.05 Q13.95 23.3 14.55 20.65 L14.65 19.95 Q15.75 13.55 20 9.3 L22.3 7.35 Q25.95 4.85 30.85 4.35 34.25 4.2 37.45 5.5 L38.3 5.85 Q41.8 7.6 44.6 9.95 L49 13.5"/>
    <path stroke="none" fill="#FFFFFF" fill-opacity="0.6" d="M37.55 9.45 Q36.7 8.75 34.85 8 L31.45 7.25 Q29.95 7.1 31.2 6.45 32.4 5.75 33.45 6.1 37 6.8 40.85 10.7 44.6 14.6 44.3 14.7 43.95 14.75 41.15 12.45 L37.55 9.45 M56.45 31.1 Q56.5 30.25 56.15 29.1 L55 26.2 Q54.2 24.55 52.2 22.5 50.25 20.55 48.9 19.55 47.6 18.45 48.5 18.2 49.4 17.85 51.95 20 54.55 22.2 55.8 25.4 57.05 28.65 56.75 30.3 56.45 31.95 56.45 31.1"/>
  </g>
</svg>