<svg xmlns="http://www.w3.org/2000/svg" xmlns:xlink="http://www.w3.org/1999/xlink">
  <defs>
    <radialGradient gradientUnits="userSpaceOnUse" r="819.2" cx="0" cy="0" spreadMethod="pad" gradientTransform="matrix(0.0319976806640625 -0.0238189697265625 0.0184478759765625 0.0247650146484375 31 28)" id="gradient0">
      <stop offset="0" stop-color="#33FF00" stop-opacity="0"/>
      <stop offset="0.6274509803921569" stop-color="#33FF00" stop-opacity="0"/>
      <stop offset="1" stop-color="#33FF00"/>
    </radialGradient>
  </defs>
  <g>
    <path stroke="none" fill="#003300" fill-opacity="0.4" d="M53.5 43.55 L54.05 43.2 Q52.15 45.8 49.5 47.55 L49 47.85 Q45.1 50.2 40.4 49.55 36.85 49 31.65 50.15 L31.2 50.2 Q28.95 50.7 26.6 51.55 23.05 52.8 18.7 54.95 L10.75 54.75 10.55 54.7 Q6.85 52.65 4.5 48.8 L4.2 48.25 Q2.05 44.5 2.3 40.6 L2.3 40.5 Q2.9 34.55 4.65 31.65 L4.75 31.55 Q6.55 28.7 8.35 26.6 L8.45 26.5 Q9.95 24.6 10.55 21.55 L10.65 20.75 Q11.6 13.75 16.35 9.1 17.25 8.2 18.35 7.45 15.4 11.4 14.65 16.75 L14.55 17.55 Q13.95 20.6 12.45 22.5 L12.35 22.6 Q10.55 24.7 8.75 27.55 L8.65 27.65 Q6.9 30.55 6.3 36.5 L6.3 36.6 Q6.05 40.5 8.2 44.25 L8.5 44.8 Q10.85 48.65 14.55 50.7 L14.75 50.75 22.7 50.95 Q27.05 48.8 30.6 47.55 32.95 46.7 35.2 46.2 L35.65 46.15 Q40.85 45 44.4 45.55 49.1 46.2 53 43.85 L53.5 43.55"/>
    <path stroke="none" fill="#00FF00" fill-opacity="0.5019607843137255" d="M49.8 13.6 Q50.9 14.3 52 15.2 L54.45 17.5 Q56.85 19.9 58.45 23 60.05 26.05 60.15 29.75 L60.15 30.35 Q59.9 34.8 57.75 38.75 55.55 42.7 52 45.05 L51.5 45.35 Q47.6 47.7 42.9 47.05 39.35 46.5 34.15 47.65 L33.7 47.7 Q31.45 48.2 29.1 49.05 25.55 50.3 21.2 52.45 L13.25 52.25 13.05 52.2 Q9.35 50.15 7 46.3 L6.7 45.75 Q4.55 42 4.8 38.1 L4.8 38 Q5.4 32.05 7.15 29.15 L7.25 29.05 Q9.05 26.2 10.85 24.1 L10.95 24 Q12.45 22.1 13.05 19.05 L13.15 18.25 Q14.1 11.25 18.85 6.6 20.05 5.4 21.45 4.5 25.45 1.85 30.85 1.6 34.6 1.65 37.85 3.5 L38.75 4.05 Q42.3 6.55 45.15 9.45 47.8 12.3 49.8 13.6"/>
    <path stroke="none" fill="url(#gradient0)" d="M49.8 13.6 Q50.9 14.3 52 15.2 L54.45 17.5 Q56.85 19.9 58.45 23 60.05 26.05 60.15 29.75 L60.15 30.35 Q59.9 34.8 57.75 38.75 55.55 42.7 52 45.05 L51.5 45.35 Q47.6 47.7 42.9 47.05 39.35 46.5 34.15 47.65 L33.7 47.7 Q31.45 48.2 29.1 49.05 25.55 50.3 21.2 52.45 L13.25 52.25 13.05 52.2 Q9.35 50.15 7 46.3 L6.7 45.75 Q4.55 42 4.8 38.1 L4.8 38 Q5.4 32.05 7.15 29.15 L7.25 29.05 Q9.05 26.2 10.85 24.1 L10.95 24 Q12.45 22.1 13.05 19.05 L13.15 18.25 Q14.1 11.25 18.85 6.6 20.05 5.4 21.45 4.5 25.45 1.85 30.85 1.6 34.6 1.65 37.85 3.5 L38.75 4.05 Q42.3 6.55 45.15 9.45 47.8 12.3 49.8 13.6"/>
    <path stroke="none" fill="#FFFFFF" fill-opacity="0.6" d="M36.05 6.85 Q35.1 6 32.95 5.05 30.75 4.1 29 3.95 27.25 3.75 28.75 3 30.2 2.25 31.4 2.75 35.55 3.7 39.9 8.45 44.2 13.2 43.8 13.3 L40.2 10.5 36.05 6.85 M57.15 30.7 L55.9 27.3 Q55.05 25.3 52.8 22.85 L49.05 19.15 Q47.55 17.9 48.6 17.6 49.7 17.2 52.65 19.85 55.55 22.5 56.9 26.35 58.2 30.25 57.8 32.2 57.4 34.1 57.45 33.1 57.5 32.1 57.15 30.7"/>
  </g>
</svg>