<svg xmlns="http://www.w3.org/2000/svg" xmlns:xlink="http://www.w3.org/1999/xlink">
  <defs>
    <radialGradient gradientUnits="userSpaceOnUse" r="819.2" cx="0" cy="0" spreadMethod="pad" gradientTransform="matrix(0.0148773193359375 -0.001678466796875 0.0014801025390625 0.01318359375 32.15 27.15)" id="gradient0">
      <stop offset="0" stop-color="#33FF00" stop-opacity="0"/>
      <stop offset="0.6274509803921569" stop-color="#33FF00" stop-opacity="0"/>
      <stop offset="1" stop-color="#33FF00"/>
    </radialGradient>
    <radialGradient gradientUnits="userSpaceOnUse" r="819.2" cx="0" cy="0" spreadMethod="pad" gradientTransform="matrix(-0.0004119873046875 -0.003204345703125 0.002716064453125 -0.0003509521484375 21.85 35.65)" id="gradient1">
      <stop offset="0" stop-color="#33FF00" stop-opacity="0"/>
      <stop offset="0.6274509803921569" stop-color="#33FF00" stop-opacity="0"/>
      <stop offset="1" stop-color="#33FF00"/>
    </radialGradient>
  </defs>
  <g>
    <path stroke="none" fill="#003300" fill-opacity="0.4" d="M39.5 35.75 Q36.1 38.8 31.25 39.6 27.85 40 25.1 37.75 L23.05 35.85 20.7 32.6 Q19.05 29.55 19.1 27.65 19.35 22.55 22.6 19.3 L23.45 18.45 Q20.95 21.5 20.7 26 20.65 27.85 22.3 30.95 L24.3 33.8 24.35 33.85 26.7 36.1 Q29.45 38.35 32.85 37.95 37.55 37.2 40.9 34.3 L39.5 35.75"/>
    <path stroke="none" fill="#00FF00" fill-opacity="0.5019607843137255" d="M44.05 26.85 Q43.9 31.85 40.5 34.8 37.1 37.8 32.25 38.65 28.85 39.05 26.1 36.8 24.7 35.7 23.6 34.4 L23.65 34.75 Q23.75 36.45 23.15 36.85 L21.65 37.15 Q19.8 36.95 19.65 34.75 19.45 32.6 21.65 32.35 L22.2 32.5 21.7 31.65 Q20.05 28.65 20.1 26.7 20.3 21.65 23.6 18.35 26.85 15 32.25 14.6 38.4 14.4 41.25 18.05 44.1 21.7 44.05 26.85"/>
    <path stroke="none" fill="url(#gradient0)" d="M44.05 27.85 Q43.9 32.85 40.5 35.8 37.1 38.8 32.25 39.65 28.85 40.05 26.1 37.8 L23.75 35.6 Q23.3 34.55 22.65 33.9 L22 33.45 22.2 33.5 21.7 32.65 Q20.05 29.65 20.1 27.7 20.3 22.65 23.6 19.35 26.85 16 32.25 15.6 38.4 15.4 41.25 19.05 44.1 22.7 44.05 27.85"/>
    <path stroke="none" fill="url(#gradient1)" d="M22 33.55 L22.65 34 Q23.3 34.65 23.75 35.7 L23.6 35.5 23.65 35.85 Q23.75 37.55 23.15 37.95 L21.65 38.25 Q19.8 38.05 19.65 35.85 19.45 33.7 21.65 33.45 L22 33.55"/>
    <path stroke="none" fill="#FFFFFF" fill-opacity="0.6" d="M40.95 20.6 L41.05 20.9 42.25 24.1 42.45 24.65 Q42.65 24.95 42.35 25.2 L42.15 24.95 41.3 23.35 Q38.85 19.15 34.35 17.6 L28.6 16.95 29.25 16.6 31.65 16.15 35.3 16.75 Q39.05 17.45 40.95 20.6 M22.85 33.9 L22.9 34.15 22.9 34.35 22.7 34.5 22.5 34.6 21.6 33.85 Q21.1 33.85 20.9 33.5 21.2 33.1 21.75 33.2 L22.75 33.8 22.85 33.9"/>
  </g>
</svg>