<svg xmlns="http://www.w3.org/2000/svg" xmlns:xlink="http://www.w3.org/1999/xlink">
  <defs>
    <radialGradient gradientUnits="userSpaceOnUse" r="819.2" cx="0" cy="0" spreadMethod="pad" gradientTransform="matrix(0.039459228515625 -0.000213623046875 0.000213623046875 0.039459228515625 31.1 30.05)" id="gradient0">
      <stop offset="0" stop-color="#33FF00" stop-opacity="0"/>
      <stop offset="0.6274509803921569" stop-color="#33FF00" stop-opacity="0"/>
      <stop offset="1" stop-color="#33FF00"/>
    </radialGradient>
  </defs>
  <g>
    <path stroke="none" fill="#003300" fill-opacity="0.4" d="M7.05 14.1 Q3.15 20.65 3.05 28.85 3.15 37 7.05 43.6 10.95 50.2 17.55 54.1 24.1 58 32.3 58.1 40.45 58 47.05 54.1 L51.3 51.1 Q48.15 54.75 43.85 57.3 37.25 61.2 29.1 61.3 20.9 61.2 14.35 57.3 7.75 53.4 3.85 46.8 -0.05 40.2 -0.15 32.05 -0.05 23.85 3.85 17.3 6.4 13 10.1 9.85 8.4 11.8 7.05 14.1"/>
    <path stroke="none" fill="#00FF00" fill-opacity="0.5019607843137255" d="M56.35 15.3 Q60.25 21.85 60.35 30.05 60.25 38.2 56.35 44.8 52.45 51.4 45.85 55.3 39.25 59.2 31.1 59.3 22.9 59.2 16.35 55.3 9.75 51.4 5.85 44.8 1.95 38.2 1.85 30.05 1.95 21.85 5.85 15.3 9.75 8.7 16.35 4.8 22.9 0.9 31.1 0.8 39.25 0.9 45.85 4.8 52.45 8.7 56.35 15.3"/>
    <path stroke="none" fill="url(#gradient0)" d="M45.9 4.8 Q52.45 8.7 56.35 15.3 60.25 21.85 60.35 30.05 60.25 38.25 56.35 44.85 52.45 51.4 45.9 55.3 39.3 59.2 31.1 59.3 22.9 59.2 16.35 55.3 9.75 51.4 5.85 44.85 1.95 38.25 1.85 30.05 1.95 21.85 5.85 15.3 9.75 8.7 16.35 4.8 22.9 0.9 31.1 0.8 39.3 0.9 45.9 4.8"/>
    <path stroke="none" fill="#FFFFFF" fill-opacity="0.6" d="M40.95 5.55 Q47.4 7.85 52.55 15.25 54.6 18.15 55.8 21.5 L56.8 24.75 Q58 30 57 30 56 30 54.3 23.25 L53.75 21.5 Q51.95 15.9 48.4 12.3 44.35 8.1 40.1 6.6 35.8 5.15 40.95 5.55 M37.45 4.25 Q39 4.75 38.6 4.85 L36.95 5.3 Q36.85 5.1 36.5 5.05 L33.15 4.4 Q32.25 4.1 33.65 3.75 35.95 3.65 37.45 4.25"/>
  </g>
</svg>