<svg xmlns="http://www.w3.org/2000/svg" xmlns:xlink="http://www.w3.org/1999/xlink">
  <defs>
    <radialGradient gradientUnits="userSpaceOnUse" r="819.2" cx="0" cy="0" spreadMethod="pad" gradientTransform="matrix(0.04443359375 -0.0002288818359375 0.0002288818359375 0.0444793701171875 31.05 30)" id="gradient0">
      <stop offset="0" stop-color="#33FF00" stop-opacity="0"/>
      <stop offset="0.6274509803921569" stop-color="#33FF00" stop-opacity="0"/>
      <stop offset="1" stop-color="#33FF00"/>
    </radialGradient>
  </defs>
  <g>
    <path stroke="none" fill="#003300" fill-opacity="0.4" d="M0.6 15.35 Q3.4 10.65 7.4 7.15 5.4 9.45 3.8 12.15 -0.6 19.6 -0.7 28.8 -0.6 38 3.8 45.45 8.2 52.85 15.6 57.25 23 61.65 32.25 61.8 41.45 61.65 48.85 57.25 51.55 55.65 53.85 53.65 50.35 57.65 45.65 60.45 38.25 64.85 29.05 65 19.8 64.85 12.4 60.45 5 56.05 0.6 48.65 -3.8 41.2 -3.9 32 -3.8 22.8 0.6 15.35"/>
    <path stroke="none" fill="#00FF00" fill-opacity="0.5019607843137255" d="M59.5 46.65 Q55.05 54.05 47.65 58.45 40.25 62.85 31.05 63 21.8 62.85 14.4 58.45 7 54.05 2.6 46.65 -1.8 39.2 -1.9 30 -1.8 20.8 2.6 13.35 7 5.95 14.4 1.55 21.8 -2.85 31.05 -2.95 40.25 -2.85 47.65 1.55 55.05 5.95 59.5 13.35 63.85 20.8 64 30 63.85 39.2 59.5 46.65"/>
    <path stroke="none" fill="url(#gradient0)" d="M47.7 1.55 Q55.05 5.95 59.45 13.4 63.9 20.75 64 30 63.9 39.2 59.45 46.65 55.05 54.05 47.7 58.45 40.25 62.85 31.05 62.95 21.8 62.85 14.45 58.45 7 54.05 2.6 46.65 -1.8 39.2 -1.9 30 -1.8 20.75 2.6 13.4 7 5.95 14.45 1.55 21.8 -2.85 31.05 -3 40.25 -2.85 47.7 1.55"/>
    <path stroke="none" fill="#FFFFFF" fill-opacity="0.6" d="M35.15 3.85 Q36.9 4.45 36.45 4.6 L34.55 5.1 Q34.45 4.85 34.05 4.8 L30.3 4.1 Q29.3 3.7 30.9 3.3 33.45 3.2 35.15 3.85 M39.1 5.35 Q46.35 7.95 52.2 16.3 54.45 19.55 55.8 23.3 L56.9 27 Q58.3 32.9 57.2 32.9 56.05 32.9 54.1 25.3 L53.5 23.3 Q51.45 17.05 47.5 12.95 42.95 8.2 38.15 6.55 33.3 4.9 39.1 5.35"/>
  </g>
</svg>