<svg xmlns="http://www.w3.org/2000/svg" xmlns:xlink="http://www.w3.org/1999/xlink">
  <defs>
    <radialGradient gradientUnits="userSpaceOnUse" r="819.2" cx="0" cy="0" spreadMethod="pad" gradientTransform="matrix(0.0457611083984375 -0.000244140625 0.00018310546875 0.034942626953125 31.6 30.25)" id="gradient0">
      <stop offset="0" stop-color="#33FF00" stop-opacity="0"/>
      <stop offset="0.6274509803921569" stop-color="#33FF00" stop-opacity="0"/>
      <stop offset="1" stop-color="#33FF00"/>
    </radialGradient>
  </defs>
  <g>
    <path stroke="none" fill="#003300" fill-opacity="0.4" d="M21.4 -8.65 Q19.45 -5.85 19.1 -1.95 18.35 2.4 15.75 5.55 L12.45 8.9 12.55 8.75 Q15.15 5.6 15.9 1.25 16.45 -4.5 20.35 -7.85 L21.4 -8.65 M69.1 38.95 Q66.95 41.3 61 43.4 56.85 45.1 51.95 49.75 L53.6 48.05 Q59.45 42.15 64.2 40.2 67.9 38.85 70.15 37.45 L69.1 38.95 M28.75 63.2 Q30.9 63.95 32.75 64 L37.7 63.5 Q39.25 63.15 40.5 62.35 L39.3 63.95 Q37.35 66.05 34.5 66.7 L29.55 67.2 Q27.7 67.15 25.55 66.4 23.35 65.6 22.25 64.55 L14.25 57.15 Q9.75 53.15 5.25 49.9 0.75 46.7 -2.8 45.55 -8.15 43.9 -11.1 40.6 -14.1 37.25 -14.15 32.85 -14.35 28.05 -9.3 24.25 -11.05 26.75 -10.95 29.65 -10.9 34.05 -7.9 37.4 -4.95 40.7 0.4 42.35 3.95 43.5 8.45 46.7 12.95 49.95 17.45 53.95 L25.45 61.35 Q26.55 62.4 28.75 63.2"/>
    <path stroke="none" fill="#00FF00" fill-opacity="0.5019607843137255" d="M30.95 -12.85 Q34.65 -12.6 37.8 -9.6 40.95 -6.65 43.1 0.8 44.45 4.55 47.15 8.2 49.8 11.85 53.25 14.4 56.65 16.85 60.2 17.2 66.55 17.5 69.85 21.55 73.15 25.6 73.15 30.8 73.25 34.55 71.1 36.95 68.95 39.3 63 41.4 58.25 43.35 52.4 49.25 46.55 55.1 41.3 61.95 39.35 64.05 36.5 64.7 L31.55 65.2 Q29.7 65.15 27.55 64.4 25.35 63.6 24.25 62.55 L16.25 55.15 Q11.75 51.15 7.25 47.9 2.75 44.7 -0.8 43.55 -6.15 41.9 -9.1 38.6 -12.1 35.25 -12.15 30.85 -12.4 24.25 -2.85 19.6 L7.6 12.85 Q11.95 9.9 14.55 6.75 17.15 3.6 17.9 -0.75 18.45 -6.5 22.35 -9.85 26.25 -13.2 30.95 -12.85"/>
    <path stroke="none" fill="url(#gradient0)" d="M37.8 -9.6 Q40.95 -6.65 43.1 0.8 44.45 4.55 47.15 8.2 49.8 11.85 53.25 14.4 56.65 16.85 60.2 17.2 66.55 17.5 69.85 21.55 73.15 25.6 73.15 30.8 73.25 34.55 71.1 36.95 68.95 39.3 63 41.4 58.25 43.35 52.4 49.25 46.55 55.1 41.3 61.95 39.35 64.05 36.5 64.7 L31.55 65.2 Q29.7 65.15 27.55 64.4 25.35 63.6 24.25 62.55 L16.25 55.15 Q11.75 51.15 7.25 47.9 2.75 44.7 -0.8 43.55 -6.15 41.9 -9.1 38.6 -12.1 35.25 -12.15 30.85 -12.4 24.25 -2.85 19.6 L7.6 12.85 Q11.95 9.9 14.55 6.75 17.15 3.6 17.9 -0.75 18.45 -6.5 22.35 -9.85 26.25 -13.2 30.95 -12.85 34.65 -12.6 37.8 -9.6"/>
    <path stroke="none" fill="#FFFFFF" fill-opacity="0.6" d="M36.65 -8.5 Q38.55 -7.05 39.15 -4.6 39.7 -2.5 39.85 -0.2 L38.75 -1.55 38.75 -2.1 36.5 -5.45 35.05 -6.95 32.95 -8.2 31.75 -8.8 25.2 -9.1 Q26.5 -10.4 28.45 -10.8 30 -11.15 31.55 -10.8 34.4 -10.3 36.65 -8.5 M40.8 2.3 L41.1 2.25 42.4 4.95 41.8 5.7 40.65 5.2 40.8 2.3 M53.2 16 L63.9 20.7 Q66 21.55 68 23.3 69.75 24.95 70.7 27.25 71.65 29.35 70.6 31.55 L69.95 32.75 Q69.5 33.45 68.75 33.2 L68.45 30.65 Q67.6 23.2 61.65 21.8 L57.55 20.2 Q52.65 18.7 49.85 16 L47.45 13.55 Q48.85 12.65 49.95 13.75 51.55 15.25 53.2 16 M35.8 62.05 L35.4 61.1 39 58 39.55 57.45 Q41.25 55.6 42.55 53.5 42.85 53.05 43.6 53 L43.35 54.7 Q41.6 58.15 38.75 60.95 L36.25 62.15 35.8 62.05 M1.55 19.1 L4.55 17.1 11.55 11.3 11.7 11.35 11.35 12.65 Q10.5 14.45 8.9 15.75 6.4 17.85 3.25 19.25 L1.55 19.1"/>
  </g>
</svg>