<svg xmlns="http://www.w3.org/2000/svg" xmlns:xlink="http://www.w3.org/1999/xlink">
  <defs>
    <radialGradient gradientUnits="userSpaceOnUse" r="819.2" cx="0" cy="0" spreadMethod="pad" gradientTransform="matrix(0.05902099609375 -0.0003204345703125 0.0003204345703125 0.05902099609375 31.6 30.25)" id="gradient0">
      <stop offset="0" stop-color="#33FF00" stop-opacity="0"/>
      <stop offset="0.6274509803921569" stop-color="#33FF00" stop-opacity="0"/>
      <stop offset="1" stop-color="#33FF00"/>
    </radialGradient>
  </defs>
  <g>
    <path stroke="none" fill="#003300" fill-opacity="0.4" d="M20 -3.05 Q19.7 3.6 23.6 11.3 L23.75 11.65 Q25.65 15.95 23.8 18.15 23.05 19 21.45 19.3 21.7 17.45 20.55 14.85 L20.4 14.5 Q16.5 6.8 16.8 0.15 17.05 -6.55 20.35 -10.7 21.55 -12.25 23.05 -13.25 20.2 -9.25 20 -3.05 M48.05 43.7 Q45.6 42.9 44.05 43.05 44.4 41.5 45.5 40.55 47 39.1 51.25 40.5 58.5 42.5 65.85 41.5 73.2 40.45 78.25 37.35 L79 36.85 Q77.7 38.85 75.05 40.55 70 43.65 62.65 44.7 55.3 45.7 48.05 43.7 M12.75 39.1 Q19.65 36.4 22.35 36.75 25.05 37.1 25.15 39.25 25.25 41.4 24.35 44.1 23.4 46.8 23.05 48.95 22.8 52.85 23.45 57.25 24.05 61.65 26.2 64.8 28.3 67.95 32.65 68.2 35.9 68.1 38.4 66.5 35.1 71.3 29.45 71.4 25.1 71.15 23 68 20.85 64.85 20.25 60.45 19.6 56.05 19.85 52.15 20.2 50 21.15 47.3 22.05 44.6 21.95 42.45 21.85 40.3 19.15 39.95 16.45 39.6 9.55 42.3 2.1 45.75 -4.35 45.35 -10.8 44.9 -14.75 41.7 -18.75 38.4 -18.9 33.35 -18.7 29.3 -14.45 26.35 -15.6 28.1 -15.7 30.15 -15.55 35.2 -11.55 38.5 -7.6 41.7 -1.15 42.15 5.3 42.55 12.75 39.1"/>
    <path stroke="none" fill="#00FF00" fill-opacity="0.5019607843137255" d="M30.8 -17 Q35.05 -16.8 38.15 -12.05 41.2 -7.35 42.35 -0.25 43.45 6.8 41.8 13.95 40.55 20.6 41.9 23 43.2 25.4 45.65 25.2 48.05 25.05 50.2 24 L52.75 22.65 Q60.4 18.75 67.1 19 73.75 19.3 77.95 22.6 82.1 25.85 82.25 31.05 82 35.4 77.05 38.55 72 41.65 64.65 42.7 57.3 43.7 50.05 41.7 45.8 40.3 44.3 41.75 42.75 43.15 42.75 45.6 42.7 48 43.15 49.65 44.3 58.1 40.9 63.7 37.55 69.3 31.45 69.4 27.1 69.15 25 66 22.85 62.85 22.25 58.45 21.6 54.05 21.85 50.15 22.2 48 23.15 45.3 24.05 42.6 23.95 40.45 23.85 38.3 21.15 37.95 18.45 37.6 11.55 40.3 4.1 43.75 -2.35 43.35 -8.8 42.9 -12.75 39.7 -16.75 36.4 -16.9 31.35 -16.7 27.1 -12.05 24.05 -7.4 21 -0.4 19.85 L13.7 20.25 Q20.7 21.5 22.6 19.35 24.45 17.15 22.55 12.85 L22.4 12.5 Q18.5 4.8 18.8 -1.85 19.05 -8.55 22.35 -12.7 25.6 -16.85 30.8 -17"/>
    <path stroke="none" fill="url(#gradient0)" d="M52.75 22.65 Q60.4 18.75 67.1 19 73.75 19.3 77.95 22.6 82.1 25.85 82.25 31.05 82 35.4 77.05 38.55 72 41.65 64.65 42.7 57.3 43.7 50.05 41.7 45.8 40.3 44.3 41.75 42.75 43.15 42.75 45.6 42.7 48 43.15 49.65 44.3 58.1 40.9 63.7 37.55 69.3 31.45 69.4 27.1 69.15 25 66 22.85 62.85 22.25 58.45 21.6 54.05 21.85 50.15 22.2 48 23.15 45.3 24.05 42.6 23.95 40.45 23.85 38.3 21.15 37.95 18.45 37.6 11.55 40.3 4.1 43.75 -2.35 43.35 -8.8 42.9 -12.75 39.7 -16.75 36.4 -16.9 31.35 -16.7 27.1 -12.05 24.05 -7.4 21 -0.4 19.85 L13.7 20.25 Q20.7 21.5 22.6 19.35 24.45 17.15 22.55 12.85 L22.4 12.5 Q18.5 4.8 18.8 -1.85 19.05 -8.55 22.35 -12.7 25.6 -16.85 30.8 -17 35.05 -16.8 38.15 -12.05 41.2 -7.35 42.35 -0.25 43.45 6.8 41.8 13.95 40.55 20.6 41.9 23 43.2 25.4 45.65 25.2 48.05 25.05 50.2 24 L52.75 22.65"/>
    <path stroke="none" fill="#FFFFFF" fill-opacity="0.6" d="M36.35 -12.5 L37.65 -10.25 37.3 -9 35.9 -10.1 Q34 -11.8 31.7 -13 L29.95 -13.8 28.9 -13.7 Q28.65 -13.7 28.45 -13.85 28.15 -13.95 27.95 -14.2 L27.85 -14.3 Q29.5 -15.65 31.6 -15.15 34.5 -14.75 36.35 -12.5 M40.15 25.6 L38.75 24.2 Q37.45 22 37.3 18.9 L37.7 17.3 38.45 16.5 Q38.1 21.3 39.4 23 L41.7 25.65 Q44.1 26.75 41.2 26.35 L40.15 25.6 M23.4 22.3 L23.1 22.8 22.3 23.35 20.1 23.8 16.95 23.3 Q14.15 22.35 11.3 21.75 9.5 20.95 13.75 21.3 L22.95 21.6 23.4 22.3 M40.3 44.1 L39.55 43.65 Q39.15 43.1 39.2 42.65 40.3 39.3 41.5 39.4 L41.65 39.7 Q41.85 39.95 41.3 40.75 40.75 41.85 40.95 43 40.75 44.35 40.3 44.1 M69.5 21.9 L70 21.3 72.5 21.5 Q74.8 21.85 76.75 23.3 80.1 25.8 80.4 29.95 80.45 31 79.9 31.8 79.2 32.75 78.25 33.15 L77.7 32.8 78.45 30.6 78.15 29.2 Q77.7 27.85 76.95 26.75 75.8 25.1 74.15 24.25 71.95 23.05 69.5 21.9"/>
  </g>
</svg>