<svg xmlns="http://www.w3.org/2000/svg" xmlns:xlink="http://www.w3.org/1999/xlink">
  <defs>
    <radialGradient gradientUnits="userSpaceOnUse" r="819.2" cx="0" cy="0" spreadMethod="pad" gradientTransform="matrix(0 -0.02459716796875 0.0120849609375 0 33.8 -3.75)" id="gradient0">
      <stop offset="0" stop-color="#33FF00" stop-opacity="0"/>
      <stop offset="0.6274509803921569" stop-color="#33FF00" stop-opacity="0"/>
      <stop offset="1" stop-color="#33FF00"/>
    </radialGradient>
    <radialGradient gradientUnits="userSpaceOnUse" r="819.2" cx="0" cy="0" spreadMethod="pad" gradientTransform="matrix(0.023590087890625 -0.0001220703125 0.0000762939453125 0.012359619140625 57.65 29.25)" id="gradient1">
      <stop offset="0" stop-color="#33FF00" stop-opacity="0"/>
      <stop offset="0.6274509803921569" stop-color="#33FF00" stop-opacity="0"/>
      <stop offset="1" stop-color="#33FF00"/>
    </radialGradient>
    <radialGradient gradientUnits="userSpaceOnUse" r="819.2" cx="0" cy="0" spreadMethod="pad" gradientTransform="matrix(0.0000762939453125 -0.0185089111328125 0.0106353759765625 0.000030517578125 33.6 54.05)" id="gradient2">
      <stop offset="0" stop-color="#33FF00" stop-opacity="0"/>
      <stop offset="0.6274509803921569" stop-color="#33FF00" stop-opacity="0"/>
      <stop offset="1" stop-color="#33FF00"/>
    </radialGradient>
    <radialGradient gradientUnits="userSpaceOnUse" r="819.2" cx="0" cy="0" spreadMethod="pad" gradientTransform="matrix(0.0221405029296875 -0.002655029296875 0.0010986328125 0.0091400146484375 5.3 30.6)" id="gradient3">
      <stop offset="0" stop-color="#33FF00" stop-opacity="0"/>
      <stop offset="0.6274509803921569" stop-color="#33FF00" stop-opacity="0"/>
      <stop offset="1" stop-color="#33FF00"/>
    </radialGradient>
  </defs>
  <g>
    <path stroke="none" fill="#00FF00" fill-opacity="0.5019607843137255" d="M34.2 -10.4 Q35.9 -8.1 36.75 -4.5 37.55 -0.9 37.1 3 36.65 6.85 34.65 10.05 32.6 13.25 32.45 15.65 32.25 18.05 32.65 19.75 33.05 21.45 32.85 22.55 32.6 23.6 30.5 24.1 28 24.7 27.55 23.2 27.05 21.7 27.4 18.8 27.7 15.85 27.5 12.1 27.3 8.35 25.4 4.35 23.15 -0.1 23.3 -4 23.45 -7.9 25.35 -10.3 27.25 -12.75 30.3 -12.8 32.5 -12.7 34.2 -10.4 M58.2 27.8 Q62.65 25.55 66.55 25.7 70.4 25.85 72.85 27.75 75.25 29.65 75.35 32.7 75.25 34.9 72.95 36.65 70.6 38.35 67.05 39.15 L59.6 39.5 Q55.7 39.05 52.55 37.05 49.3 35 46.9 34.85 L42.8 35.05 40 35.25 Q38.95 35 38.45 32.95 37.85 30.4 39.35 29.95 L43.75 29.8 Q46.65 30.1 50.45 29.9 54.2 29.7 58.2 27.8 M22 18.45 Q21.55 16.6 21.75 15.15 21.9 13.6 23.55 13.6 24.8 13.7 25 15.1 25.2 16.45 24.85 18.15 L24.2 20.95 Q23.85 22.7 24.2 24.25 L24.55 26.65 Q24.6 27.55 23.6 27.35 22.35 27 22.65 25.5 22.9 24 22.7 21.4 L22 18.45 M18.4 34.95 L14.7 35.05 Q12.25 34.8 9.1 34.95 5.95 35.1 2.6 36.75 -1.15 38.6 -4.4 38.5 -7.65 38.35 -9.65 36.8 -11.7 35.15 -11.75 32.65 -11.7 30.75 -9.75 29.35 -7.8 27.9 -4.8 27.25 L1.45 26.9 Q4.7 27.25 7.35 29 10.05 30.65 12.1 30.85 L15.5 30.65 17.85 30.5 Q18.75 30.65 19.2 32.45 19.65 34.55 18.4 34.95 M29.7 43 Q29.85 42.15 31.5 41.8 33.45 41.35 33.85 42.5 34.2 43.65 33.95 45.95 33.7 48.2 33.85 51.15 33.95 54.05 35.5 57.15 37.25 60.65 37.15 63.7 37 66.7 35.55 68.6 34.05 70.45 31.7 70.55 29.95 70.45 28.65 68.65 27.3 66.85 26.65 64.05 26.05 61.25 26.4 58.25 26.7 55.25 28.3 52.75 29.85 50.25 30 48.35 30.15 46.45 29.85 45.15 29.5 43.85 29.7 43 M25.85 72.2 Q25.7 73.35 24.45 73.4 23.45 73.3 23.3 72.25 23.15 71.15 23.45 69.85 L23.95 67.65 Q24.2 66.3 23.95 65.1 L23.7 63.2 Q23.6 62.5 24.4 62.7 25.35 62.9 25.15 64.1 24.9 65.25 25.1 67.3 L25.65 69.6 Q26 71 25.85 72.2"/>
    <path stroke="none" fill="url(#gradient0)" d="M36.75 -4.5 Q37.5 -0.95 37.1 2.95 36.65 6.85 34.65 10.05 32.6 13.2 32.4 15.65 32.25 18.05 32.65 19.75 33.05 21.45 32.85 22.5 32.6 23.55 30.5 24.1 28 24.65 27.55 23.2 27.05 21.7 27.4 18.75 27.7 15.85 27.5 12.1 27.3 8.35 25.35 4.35 23.1 -0.1 23.25 -4 23.4 -7.9 25.3 -10.3 27.25 -12.75 30.3 -12.8 32.5 -12.75 34.2 -10.4 35.9 -8.1 36.75 -4.5"/>
    <path stroke="none" fill="url(#gradient1)" d="M39.35 29.95 L43.75 29.8 Q46.65 30.1 50.4 29.9 54.15 29.7 58.2 27.75 62.6 25.5 66.5 25.65 70.4 25.8 72.8 27.75 75.25 29.65 75.35 32.7 75.25 34.9 72.95 36.65 70.6 38.3 67.05 39.15 L59.6 39.5 Q55.65 39.05 52.5 37.05 49.3 35 46.9 34.85 L42.75 35.05 40 35.25 Q38.95 35 38.4 32.9 37.85 30.4 39.35 29.95"/>
    <path stroke="none" fill="url(#gradient2)" d="M31.5 41.75 Q33.45 41.3 33.8 42.5 34.2 43.65 33.9 45.95 33.7 48.2 33.85 51.1 33.95 54.05 35.5 57.15 37.2 60.65 37.15 63.7 37 66.7 35.55 68.55 34.05 70.45 31.65 70.55 29.95 70.45 28.6 68.65 27.25 66.85 26.65 64.05 26 61.25 26.35 58.25 26.65 55.2 28.3 52.75 29.85 50.25 30 48.35 30.15 46.45 29.85 45.15 29.5 43.85 29.7 43 29.85 42.2 31.5 41.75"/>
    <path stroke="none" fill="url(#gradient3)" d="M-9.75 29.3 Q-7.85 27.9 -4.8 27.2 L1.45 26.9 Q4.7 27.25 7.35 28.95 10 30.65 12.1 30.8 L15.5 30.6 17.8 30.45 Q18.7 30.65 19.15 32.4 19.6 34.55 18.4 34.95 L14.7 35.05 Q12.25 34.8 9.1 34.95 5.95 35.1 2.6 36.75 -1.15 38.6 -4.4 38.5 -7.65 38.35 -9.7 36.8 -11.7 35.15 -11.8 32.6 -11.7 30.75 -9.75 29.3"/>
    <path stroke="none" fill="#00FF00" fill-opacity="0.5019607843137255" d="M23.5 13.55 Q24.8 13.65 25 15.05 L24.85 18.15 24.2 20.95 Q23.85 22.65 24.15 24.2 L24.55 26.65 Q24.6 27.55 23.6 27.3 22.3 27 22.6 25.5 22.9 24 22.65 21.35 L22 18.45 Q21.55 16.6 21.7 15.15 21.85 13.6 23.5 13.55 M23.65 63.2 Q23.6 62.5 24.4 62.65 25.35 62.95 25.15 64.1 24.9 65.25 25.1 67.3 L25.6 69.55 25.85 72.2 Q25.75 73.35 24.45 73.4 23.45 73.3 23.3 72.25 23.15 71.15 23.4 69.85 L23.95 67.65 Q24.15 66.25 23.95 65.1 L23.65 63.2"/>
    <path stroke="none" fill="#FFFFFF" fill-opacity="0.6" d="M34.1 -9.55 Q37.5 -2.4 34.4 4.8 35.45 -5.2 32.95 -8.4 30.35 -11.7 29.35 -11.6 L30.65 -11.8 Q31.95 -11.8 34.1 -9.55 M73.65 33.65 L73.05 31.7 Q71.8 28.6 69.6 28.1 L66.65 27.25 Q72.7 26.65 74.25 32.2 L74.1 33.15 73.65 33.65 M31.75 42.9 L31.9 42.7 Q33.3 42.55 33.2 43.85 L33.05 44.8 Q32.85 44.1 31.75 42.9 M7.85 31.05 L5.65 30.15 Q3.95 28.9 -0.65 28.5 -2.3 28.1 1.2 28 5.5 28.9 9.25 31.35 L7.85 31.05 M32.15 50.7 Q32.7 54.8 35.05 58.3 L35.55 59.1 Q36.65 62.1 35.35 61.65 L33.15 56.85 Q31.9 54.35 32 51.6 L32.15 50.7"/>
  </g>
</svg>