<svg xmlns="http://www.w3.org/2000/svg" xmlns:xlink="http://www.w3.org/1999/xlink">
  <defs>
    <radialGradient gradientUnits="userSpaceOnUse" r="819.2" cx="0" cy="0" spreadMethod="pad" gradientTransform="matrix(-0.00128173828125 -0.0107421875 0.0058746337890625 -0.0007171630859375 31.1 -0.75)" id="gradient0">
      <stop offset="0" stop-color="#33FF00" stop-opacity="0"/>
      <stop offset="0.6274509803921569" stop-color="#33FF00" stop-opacity="0"/>
      <stop offset="1" stop-color="#33FF00"/>
    </radialGradient>
    <radialGradient gradientUnits="userSpaceOnUse" r="819.2" cx="0" cy="0" spreadMethod="pad" gradientTransform="matrix(0.0115203857421875 -0.001739501953125 0.00091552734375 0.0060272216796875 60.25 29.6)" id="gradient1">
      <stop offset="0" stop-color="#33FF00" stop-opacity="0"/>
      <stop offset="0.6274509803921569" stop-color="#33FF00" stop-opacity="0"/>
      <stop offset="1" stop-color="#33FF00"/>
    </radialGradient>
    <radialGradient gradientUnits="userSpaceOnUse" r="819.2" cx="0" cy="0" spreadMethod="pad" gradientTransform="matrix(0.009735107421875 -0.0011749267578125 0.0004730224609375 0.0040130615234375 1.3 29.35)" id="gradient2">
      <stop offset="0" stop-color="#33FF00" stop-opacity="0"/>
      <stop offset="0.6274509803921569" stop-color="#33FF00" stop-opacity="0"/>
      <stop offset="1" stop-color="#33FF00"/>
    </radialGradient>
    <radialGradient gradientUnits="userSpaceOnUse" r="819.2" cx="0" cy="0" spreadMethod="pad" gradientTransform="matrix(-0.0013427734375 -0.0086822509765625 0.004638671875 -0.0007171630859375 31.6 58.6)" id="gradient3">
      <stop offset="0" stop-color="#33FF00" stop-opacity="0"/>
      <stop offset="0.6274509803921569" stop-color="#33FF00" stop-opacity="0"/>
      <stop offset="1" stop-color="#33FF00"/>
    </radialGradient>
  </defs>
  <g>
    <path stroke="none" fill="#00FF00" fill-opacity="0.5019607843137255" d="M35.65 -2.8 Q36.2 -0.15 35.9 2.7 35.55 5.55 34.1 7.9 33.1 9.45 31.3 8.8 29 7.95 27.25 3.75 25.6 -0.25 25.7 -2.45 25.8 -5.3 27.25 -7.05 28.65 -8.9 30.9 -8.95 32.5 -8.9 33.75 -7.15 35 -5.45 35.65 -2.8 M53.65 33.85 Q52.1 32.9 51.55 31.55 50.1 28.1 55.95 26.1 60.6 24.45 62.05 24.55 64.9 24.65 66.75 26.05 68.55 27.5 68.55 29.7 68.55 31.35 66.8 32.6 65.1 33.85 62.45 34.45 L56.95 34.75 Q55.25 34.75 53.65 33.85 M27 8.7 L26.85 10.95 26.4 13.05 25.85 14.05 Q25.35 14.25 25.25 13.35 L24.75 11.2 Q24.4 9.85 24.55 8.75 24.7 7.65 25.9 7.6 26.85 7.7 27 8.7 M8.85 28.95 Q8.65 30.7 3.7 33 0.65 34.35 -1.45 34.25 -3.9 34.1 -5.35 33 -6.85 31.8 -6.9 29.95 -6.85 28.55 -5.4 27.5 -3.95 26.45 -1.75 25.95 L2.85 25.75 Q3.75 25.8 5.1 26.45 L7.2 27.25 Q8.95 27.7 8.85 28.95 M35.85 60.9 Q35.7 63.1 34.65 64.45 33.5 65.9 31.8 65.95 30.55 65.9 29.6 64.55 28.55 63.15 28.1 61.15 27.65 59 27.9 56.85 28.1 54.6 29.3 52.85 31.5 49.25 34.65 56.05 35.85 58.8 35.85 60.9 M27.65 67.15 Q27.5 68 26.6 68.05 25.85 67.95 25.75 67.15 25.65 66.35 25.85 65.4 L26.2 63.8 Q26.3 63.2 26.65 63.05 27 62.85 27.05 63.55 L27.45 65.2 27.65 67.15"/>
    <path stroke="none" fill="#00FF00" fill-opacity="0.5019607843137255" d="M27 8.7 L26.85 10.95 26.4 13.05 25.85 14.05 Q25.35 14.25 25.25 13.35 L24.75 11.2 Q24.4 9.85 24.55 8.75 24.7 7.65 25.9 7.6 26.85 7.7 27 8.7 M26.6 68.05 Q25.85 67.95 25.75 67.15 25.65 66.35 25.85 65.4 L26.2 63.8 Q26.3 63.2 26.65 63.05 27 62.85 27.05 63.55 L27.45 65.2 27.65 67.15 Q27.5 68 26.6 68.05"/>
    <path stroke="none" fill="url(#gradient0)" d="M35.6 -2.75 Q36.15 -0.2 35.85 2.75 35.5 5.55 34.05 7.95 33.05 9.45 31.4 8.85 29.25 8.05 27.2 3.75 25.55 0.3 25.65 -2.4 25.8 -5.3 27.2 -7.05 28.6 -8.85 30.85 -8.9 32.45 -8.85 33.75 -7.1 34.95 -5.45 35.6 -2.75"/>
    <path stroke="none" fill="url(#gradient1)" d="M57.1 34.65 Q52.3 34.1 51.5 31.15 50.6 27.95 56.05 26 60.6 24.4 62.2 24.45 65.1 24.6 66.85 25.95 68.65 27.4 68.7 29.65 68.65 31.25 66.95 32.55 65.25 33.75 62.6 34.4 L57.1 34.65"/>
    <path stroke="none" fill="url(#gradient2)" d="M8.65 29.5 Q7.85 31.15 3.8 32.9 0.65 34.3 -1.35 34.2 -3.8 34.05 -5.25 32.95 -6.75 31.7 -6.8 29.9 -6.75 28.5 -5.3 27.45 -3.85 26.4 -1.65 25.9 L2.95 25.7 Q3.75 25.75 7.35 27.2 9.4 28.05 8.65 29.5"/>
    <path stroke="none" fill="url(#gradient3)" d="M31.35 51.75 Q32.95 52.15 34.7 56.05 35.95 58.8 35.95 60.9 35.85 63.1 34.75 64.45 33.6 65.85 31.9 65.95 30.6 65.85 29.65 64.55 28.65 63.2 28.2 61.15 27.75 59.1 28 56.85 28.2 54.6 29.4 52.8 30.25 51.5 31.35 51.75"/>
    <path stroke="none" fill="#FFFFFF" fill-opacity="0.6" d="M31.85 53.35 L32.7 53.9 Q33.65 54.85 34.1 56.15 34.7 57.9 34.6 59.8 L34.25 61.9 33.95 62.25 33.95 62.15 33.95 62.05 34 61.2 Q34.1 58.4 33.3 55.75 32.85 54.35 31.85 53.35 M4.95 27.5 Q3.9 27.1 3.2 26.6 L5.2 27 6.75 27.75 7.15 28.25 Q7.65 29.25 6.8 30 L5 31 4.7 31.1 4.25 31 4.3 30.9 6.35 29.45 Q6.8 29.1 6.75 28.55 L6.3 28.1 4.95 27.5 M65.8 26.85 Q65.2 26.1 64.2 25.9 L63.7 25.6 63.85 25.55 64.7 25.65 Q66.8 26.2 67.3 28.15 67.55 29.25 67.15 30.25 66.85 30.95 66.15 31.25 L66.4 30.8 66.65 28.65 Q66.55 27.65 65.8 26.85 M30.15 -7.8 L30.95 -7.9 Q31.95 -7.7 32.8 -7.05 L33.95 -5.45 34.35 -4.65 34.35 -3.9 33.95 -4.2 33.4 -5.2 Q32.8 -6.45 31.6 -7.1 L29.7 -7.65 30.15 -7.8"/>
  </g>
</svg>