<svg xmlns="http://www.w3.org/2000/svg" xmlns:xlink="http://www.w3.org/1999/xlink">
  <defs>
    <radialGradient gradientUnits="userSpaceOnUse" r="819.2" cx="0" cy="0" spreadMethod="pad" gradientTransform="matrix(0.0319976806640625 -0.0238189697265625 0.0184478759765625 0.0247650146484375 31 28)" id="gradient0">
      <stop offset="0" stop-color="#33FF00" stop-opacity="0"/>
      <stop offset="0.6274509803921569" stop-color="#33FF00" stop-opacity="0"/>
      <stop offset="1" stop-color="#33FF00"/>
    </radialGradient>
  </defs>
  <g>
    <path stroke="none" fill="#003300" fill-opacity="0.4" d="M52.85 45.15 L54.7 43.95 Q52.55 46.65 49.65 48.35 45.55 50.7 40.6 49.7 36.9 48.8 31.1 50.2 25.3 51.65 18.3 55.25 14.05 57.2 10.15 55 6.2 52.85 3.85 48.5 1.5 44.2 1.95 39.8 2.8 33.55 4.65 30.6 6.5 27.65 8.3 25.45 10 23.25 10.5 19.3 11.35 12.1 16.25 7.3 17 6.55 17.8 5.95 14.4 10.2 13.7 16.1 13.2 20.05 11.5 22.25 9.7 24.45 7.85 27.4 6 30.35 5.15 36.6 4.7 41 7.05 45.3 9.4 49.65 13.35 51.8 17.25 54 21.5 52.05 28.5 48.45 34.3 47 40.1 45.6 43.8 46.5 48.75 47.5 52.85 45.15"/>
    <path stroke="none" fill="#00FF00" fill-opacity="0.5019607843137255" d="M38.85 3.3 Q42.4 6.15 45.2 9.35 47.9 12.55 49.9 13.85 52.25 15.35 54.7 17.8 57.25 20.25 58.95 23.4 60.65 26.55 60.75 30.35 60.65 35.25 58.2 39.65 55.7 44 51.65 46.35 47.55 48.7 42.6 47.7 38.9 46.8 33.1 48.2 27.3 49.65 20.3 53.25 16.05 55.2 12.15 53 8.2 50.85 5.85 46.5 3.5 42.2 3.95 37.8 4.8 31.55 6.65 28.6 8.5 25.65 10.3 23.45 12 21.25 12.5 17.3 13.35 10.1 18.25 5.3 23.1 0.45 30.8 0.25 35.25 0.45 38.85 3.3"/>
    <path stroke="none" fill="url(#gradient0)" d="M49.9 13.85 Q52.25 15.35 54.7 17.8 57.25 20.25 58.95 23.4 60.65 26.55 60.75 30.35 60.65 35.25 58.2 39.65 55.7 44 51.65 46.35 47.55 48.7 42.6 47.7 38.9 46.8 33.1 48.2 27.3 49.65 20.3 53.25 16.05 55.2 12.15 53 8.2 50.85 5.85 46.5 3.5 42.2 3.95 37.8 4.8 31.55 6.65 28.6 8.5 25.65 10.3 23.45 12 21.25 12.5 17.3 13.35 10.1 18.25 5.3 23.1 0.45 30.8 0.25 35.25 0.45 38.85 3.3 42.4 6.15 45.2 9.35 47.9 12.55 49.9 13.85"/>
    <path stroke="none" fill="#FFFFFF" fill-opacity="0.6" d="M35.85 7.5 Q34.95 6.65 32.85 5.7 30.7 4.8 28.95 4.65 27.25 4.45 28.7 3.7 L31.3 3.5 Q35.35 4.4 39.6 9.05 43.8 13.7 43.4 13.8 L39.9 11.05 35.85 7.5 M56.75 33.1 Q56.8 32.15 56.45 30.75 L55.25 27.45 Q54.4 25.5 52.2 23.1 L48.55 19.5 Q47.1 18.25 48.1 18 49.2 17.6 52.05 20.2 54.9 22.75 56.2 26.5 57.5 30.35 57.1 32.25 56.7 34.1 56.75 33.1"/>
  </g>
</svg>