<svg xmlns="http://www.w3.org/2000/svg" xmlns:xlink="http://www.w3.org/1999/xlink">
  <defs>
    <radialGradient gradientUnits="userSpaceOnUse" r="819.2" cx="0" cy="0" spreadMethod="pad" gradientTransform="matrix(0.0307159423828125 -0.011566162109375 0.0084991455078125 0.02252197265625 33.5 29)" id="gradient0">
      <stop offset="0" stop-color="#33FF00" stop-opacity="0"/>
      <stop offset="0.6274509803921569" stop-color="#33FF00" stop-opacity="0"/>
      <stop offset="1" stop-color="#33FF00"/>
    </radialGradient>
  </defs>
  <g>
    <path stroke="none" fill="#003300" fill-opacity="0.4" d="M50.25 38.25 L47.75 41 Q42.4 45.8 34.4 46.4 32.2 46.5 30.25 47.1 L23.6 49.4 Q20.4 50.45 16.9 49.55 13.35 48.6 10.7 46.35 8.1 44 7.5 40.9 6.8 36 8.35 33.6 9.85 31.15 11.85 29.75 L12.75 29.05 12.35 29.6 Q10.8 32 11.5 36.9 12.1 40 14.7 42.35 17.35 44.6 20.9 45.55 24.4 46.45 27.6 45.4 L34.25 43.1 Q36.2 42.5 38.4 42.4 45.3 41.9 50.25 38.25 M21.95 14.7 Q19.55 17.95 18.45 22.4 17.8 24.3 15.85 25.75 L14.05 27.4 14.45 26.4 Q16.25 19.15 21.4 15.1 L21.95 14.7"/>
    <path stroke="none" fill="#00FF00" fill-opacity="0.5019607843137255" d="M55.8 26.2 Q55.6 33.65 50.25 38.5 44.9 43.3 36.9 43.9 L32.75 44.6 Q30.8 45.15 26.1 46.9 22.9 47.95 19.4 47.05 15.85 46.1 13.2 43.85 10.6 41.5 10 38.4 9.3 33.5 10.85 31.1 12.35 28.65 14.35 27.25 16.3 25.8 16.95 23.9 18.75 16.65 23.9 12.6 29.05 8.55 36.9 8.5 44.9 8.7 50.3 13.7 55.6 18.7 55.8 26.2"/>
    <path stroke="none" fill="url(#gradient0)" d="M55.8 26.2 Q55.6 33.65 50.25 38.5 44.9 43.3 36.9 43.9 L32.75 44.6 Q30.8 45.15 26.1 46.9 22.9 47.95 19.4 47.05 15.85 46.1 13.2 43.85 10.6 41.5 10 38.4 9.3 33.5 10.85 31.1 12.35 28.65 14.35 27.25 16.3 25.8 16.95 23.9 18.75 16.65 23.9 12.6 29.05 8.55 36.9 8.5 44.9 8.7 50.3 13.7 55.6 18.7 55.8 26.2"/>
    <path stroke="none" fill="#FFFFFF" fill-opacity="0.6" d="M51.15 16.85 Q55.35 21.95 53.6 28.05 53.95 22.9 50.5 18.5 45.65 12.4 38 10.9 46 10.5 51.15 16.85 M16 29.05 L15.65 28.8 Q16.25 27.4 17.75 26.8 L18.4 26.6 18.5 26.45 18.55 26.4 19.8 26.2 19.95 26.2 20 26.3 20.05 26.4 Q18.35 27 17.1 28.25 L16 29.05"/>
  </g>
</svg>