<svg xmlns="http://www.w3.org/2000/svg" xmlns:xlink="http://www.w3.org/1999/xlink">
  <defs>
    <radialGradient gradientUnits="userSpaceOnUse" r="819.2" cx="0" cy="0" spreadMethod="pad" gradientTransform="matrix(0.0407867431640625 -0.000213623046875 0.000213623046875 0.0407867431640625 31.35 30.1)" id="gradient0">
      <stop offset="0" stop-color="#33FF00" stop-opacity="0"/>
      <stop offset="0.6274509803921569" stop-color="#33FF00" stop-opacity="0"/>
      <stop offset="1" stop-color="#33FF00"/>
    </radialGradient>
  </defs>
  <g>
    <path stroke="none" fill="#003300" fill-opacity="0.4" d="M6.45 13.6 Q2.4 20.4 2.3 28.9 2.4 37.3 6.45 44.15 10.5 50.95 17.3 55 24.1 59 32.55 59.15 41 59 47.8 55 L52.25 51.8 Q49 55.55 44.6 58.2 37.8 62.2 29.35 62.35 20.9 62.2 14.1 58.2 7.3 54.15 3.25 47.35 -0.8 40.5 -0.9 32.1 -0.8 23.6 3.25 16.8 5.85 12.4 9.65 9.15 7.85 11.2 6.45 13.6"/>
    <path stroke="none" fill="#00FF00" fill-opacity="0.5019607843137255" d="M57.45 14.8 Q61.5 21.6 61.6 30.1 61.5 38.5 57.45 45.35 53.4 52.15 46.6 56.2 39.8 60.2 31.35 60.35 22.9 60.2 16.1 56.2 9.3 52.15 5.25 45.35 1.2 38.5 1.1 30.1 1.2 21.6 5.25 14.8 9.3 8 16.1 4 22.9 -0.05 31.35 -0.15 39.8 -0.05 46.6 4 53.4 8 57.45 14.8"/>
    <path stroke="none" fill="url(#gradient0)" d="M46.65 3.95 Q53.4 8 57.45 14.85 61.5 21.6 61.6 30.1 61.5 38.55 57.45 45.35 53.4 52.15 46.65 56.15 39.8 60.2 31.35 60.3 22.9 60.2 16.1 56.15 9.3 52.15 5.25 45.35 1.2 38.55 1.1 30.1 1.2 21.6 5.25 14.85 9.3 8 16.1 3.95 22.9 -0.1 31.35 -0.2 39.8 -0.1 46.65 3.95"/>
    <path stroke="none" fill="#FFFFFF" fill-opacity="0.6" d="M37.95 3.35 Q39.5 3.9 39.1 4 L37.4 4.45 Q37.3 4.25 36.95 4.2 L33.5 3.55 Q32.55 3.2 34 2.85 36.4 2.75 37.95 3.35 M41.55 4.7 Q48.2 7.1 53.55 14.8 55.65 17.75 56.9 21.2 L57.9 24.6 Q59.2 30 58.15 30 57.1 30 55.35 23 L54.8 21.2 Q52.9 15.45 49.3 11.7 45.1 7.35 40.7 5.85 36.25 4.3 41.55 4.7"/>
  </g>
</svg>