<svg xmlns="http://www.w3.org/2000/svg" xmlns:xlink="http://www.w3.org/1999/xlink">
  <defs>
    <radialGradient gradientUnits="userSpaceOnUse" r="819.2" cx="0" cy="0" spreadMethod="pad" gradientTransform="matrix(0.0319976806640625 -0.0238189697265625 0.0184478759765625 0.0247650146484375 31 28)" id="gradient0">
      <stop offset="0" stop-color="#33FF00" stop-opacity="0"/>
      <stop offset="0.6274509803921569" stop-color="#33FF00" stop-opacity="0"/>
      <stop offset="1" stop-color="#33FF00"/>
    </radialGradient>
  </defs>
  <g>
    <path stroke="none" fill="#003300" fill-opacity="0.4" d="M55.15 44.3 Q53 47.05 50.05 48.75 45.9 51.15 40.9 50.1 37.1 49.2 31.2 50.65 25.3 52.1 18.2 55.75 13.85 57.75 9.9 55.5 5.9 53.3 3.5 48.9 1.1 44.5 1.55 40.05 2.4 33.7 4.3 30.7 6.2 27.7 8 25.45 9.75 23.2 10.25 19.2 11.1 11.85 16.1 6.95 L17.65 5.6 Q14.15 9.95 13.45 16 12.95 20 11.2 22.25 9.4 24.5 7.5 27.5 5.6 30.5 4.75 36.85 4.3 41.3 6.7 45.7 9.1 50.1 13.1 52.3 17.05 54.55 21.4 52.55 28.5 48.9 34.4 47.45 40.3 46 44.1 46.9 49.1 47.95 53.25 45.55 L55.15 44.3"/>
    <path stroke="none" fill="#00FF00" fill-opacity="0.5019607843137255" d="M45.5 9.1 Q48.25 12.35 50.3 13.65 52.7 15.2 55.2 17.7 57.75 20.2 59.5 23.4 61.25 26.6 61.35 30.45 61.25 35.45 58.75 39.9 56.2 44.35 52.05 46.75 47.9 49.15 42.9 48.1 39.1 47.2 33.2 48.65 27.3 50.1 20.2 53.75 15.85 55.75 11.9 53.5 7.9 51.3 5.5 46.9 3.1 42.5 3.55 38.05 4.4 31.7 6.3 28.7 8.2 25.7 10 23.45 11.75 21.2 12.25 17.2 13.1 9.85 18.1 4.95 23.05 0.05 30.85 -0.15 35.4 0.05 39.05 2.95 42.65 5.85 45.5 9.1"/>
    <path stroke="none" fill="url(#gradient0)" d="M39.05 2.95 Q42.65 5.85 45.5 9.1 48.25 12.35 50.3 13.65 52.7 15.2 55.2 17.7 57.75 20.2 59.5 23.4 61.25 26.6 61.35 30.45 61.25 35.45 58.75 39.9 56.2 44.35 52.05 46.75 47.9 49.15 42.9 48.1 39.1 47.2 33.2 48.65 27.3 50.1 20.2 53.75 15.85 55.75 11.9 53.5 7.9 51.3 5.5 46.9 3.1 42.5 3.55 38.05 4.4 31.7 6.3 28.7 8.2 25.7 10 23.45 11.75 21.2 12.25 17.2 13.1 9.85 18.1 4.95 23.05 0.05 30.85 -0.15 35.4 0.05 39.05 2.95"/>
    <path stroke="none" fill="#FFFFFF" fill-opacity="0.6" d="M52.35 18.8 Q55.65 21.4 57.3 25.5 58.95 29.55 58.6 31.65 58.25 33.7 58.25 32.65 58.3 31.6 57.85 30.15 L56.3 26.55 Q55.25 24.45 52.7 21.95 L48.45 18.2 Q46.7 16.95 47.85 16.55 49 16.1 52.35 18.8 M45.45 13.95 Q44.95 14 41.3 10.9 L36.65 6.9 Q35.55 5.95 33.1 4.95 30.6 3.9 28.65 3.7 26.65 3.45 28.3 2.65 30 1.85 31.35 2.4 36.05 3.45 41 8.65 45.9 13.9 45.45 13.95"/>
  </g>
</svg>