<svg xmlns="http://www.w3.org/2000/svg" xmlns:xlink="http://www.w3.org/1999/xlink">
  <defs>
    <radialGradient gradientUnits="userSpaceOnUse" r="819.2" cx="0" cy="0" spreadMethod="pad" gradientTransform="matrix(0.0355987548828125 -0.0265045166015625 0.0232391357421875 0.03118896484375 31 28)" id="gradient0">
      <stop offset="0" stop-color="#33FF00" stop-opacity="0"/>
      <stop offset="0.6274509803921569" stop-color="#33FF00" stop-opacity="0"/>
      <stop offset="1" stop-color="#33FF00"/>
    </radialGradient>
  </defs>
  <g>
    <path stroke="none" fill="#003300" fill-opacity="0.4" d="M9.3 16.6 L8.3 18.1 Q7 20.1 5.9 22.4 4.05 26.45 3.65 32.4 L3.65 32.5 Q3.55 37.35 5.45 41.75 6.6 44.5 8.35 46.75 L10.8 49.45 Q14.15 52.5 18.2 53.15 L20.1 53.45 31.65 53.9 34.85 53.75 41.6 53.3 Q46 53.15 49.8 51.1 L50.75 50.5 53.4 48.65 Q50.9 51.65 47.55 53.7 L46.6 54.3 Q42.8 56.35 38.4 56.5 L31.65 56.95 28.45 57.1 16.9 56.65 15 56.35 Q10.95 55.7 7.6 52.65 L5.15 49.95 Q3.4 47.7 2.25 44.95 0.35 40.55 0.45 35.7 L0.45 35.6 Q0.85 29.65 2.7 25.6 3.8 23.3 5.1 21.3 L6.1 19.8 Q8 17.15 9.7 14.1 11.2 11.5 13.3 9.35 L15.15 7.7 12.9 10.9 Q11.2 13.95 9.3 16.6"/>
    <path stroke="none" fill="#00FF00" fill-opacity="0.5019607843137255" d="M50.8 10.35 L53.6 13.9 55 15.75 Q56.85 18.1 58.35 21.05 59.75 23.8 60.45 27 L60.65 27.85 Q61.3 31.55 60.7 35.3 60.1 38.65 58.6 41.7 L56.8 44.75 Q53.9 49.05 49.55 51.7 L48.6 52.3 Q44.8 54.35 40.4 54.5 L33.65 54.95 30.45 55.1 18.9 54.65 17 54.35 Q12.95 53.7 9.6 50.65 8.3 49.4 7.15 47.95 5.4 45.7 4.25 42.95 2.35 38.55 2.45 33.7 L2.45 33.6 Q2.85 27.65 4.7 23.6 L7.1 19.3 8.1 17.8 Q10 15.15 11.7 12.1 13.2 9.5 15.3 7.35 18 4.6 21.5 2.85 24.65 1.25 28.3 0.65 31.85 0.2 35.5 0.65 39.55 1.3 43.1 3.5 L43.95 4.1 Q47.8 6.85 50.8 10.35"/>
    <path stroke="none" fill="url(#gradient0)" d="M43.95 4.1 Q47.8 6.85 50.8 10.35 L53.6 13.9 55 15.75 Q56.85 18.1 58.35 21.05 59.75 23.8 60.45 27 L60.65 27.85 Q61.3 31.55 60.7 35.3 60.1 38.65 58.6 41.7 L56.8 44.75 Q53.9 49.05 49.55 51.7 L48.6 52.3 Q44.8 54.35 40.4 54.5 L33.65 54.95 30.45 55.1 18.9 54.65 17 54.35 Q12.95 53.7 9.6 50.65 8.3 49.4 7.15 47.95 5.4 45.7 4.25 42.95 2.35 38.55 2.45 33.7 L2.45 33.6 Q2.85 27.65 4.7 23.6 L7.1 19.3 8.1 17.8 Q10 15.15 11.7 12.1 13.2 9.5 15.3 7.35 18 4.6 21.5 2.85 24.65 1.25 28.3 0.65 31.85 0.2 35.5 0.65 39.55 1.3 43.1 3.5 L43.95 4.1"/>
    <path stroke="none" fill="#FFFFFF" fill-opacity="0.6" d="M39.5 7.35 Q35.4 5.7 40.5 6.1 45.85 8.8 49.75 13.7 53.65 18.55 54.6 20.9 55.6 23.25 56 24.9 57.15 30 56.2 30.05 55.25 30.05 53.55 23.4 L52.2 19.55 Q51.05 16.5 47.3 12.75 43.55 8.95 39.5 7.35 M32.85 5 Q31.95 4.65 33.35 4.3 L37.1 4.75 Q38.55 5.3 38.2 5.4 L36.55 5.85 Q36.4 5.6 36.1 5.6 L32.85 5"/>
  </g>
</svg>