<svg xmlns="http://www.w3.org/2000/svg" xmlns:xlink="http://www.w3.org/1999/xlink">
  <defs>
    <radialGradient gradientUnits="userSpaceOnUse" r="819.2" cx="0" cy="0" spreadMethod="pad" gradientTransform="matrix(0.0353546142578125 -0.026336669921875 0.0238800048828125 0.0320587158203125 31 28)" id="gradient0">
      <stop offset="0" stop-color="#33FF00" stop-opacity="0"/>
      <stop offset="0.6274509803921569" stop-color="#33FF00" stop-opacity="0"/>
      <stop offset="1" stop-color="#33FF00"/>
    </radialGradient>
  </defs>
  <g>
    <path stroke="none" fill="#003300" fill-opacity="0.4" d="M5.15 17 Q7.15 14.15 9.45 11.55 L12.2 8.9 8.35 13.8 7.4 15.35 Q6.05 17.45 5.1 19.85 3.3 24.45 3.1 30.15 L3.1 30.35 Q3.15 35.35 4.8 39.8 5.85 42.55 7.4 45 L9.65 48 Q12.7 51.45 16.6 53.45 L18.5 54.4 Q24 56.7 30.25 57.15 L33.5 57.2 40.35 56.5 Q44.75 55.8 48.55 53.6 L49.5 53 52.7 50.7 Q49.95 53.9 46.3 56.2 L45.35 56.8 Q41.55 59 37.15 59.7 L30.3 60.4 27.05 60.35 Q20.8 59.9 15.3 57.6 L13.4 56.65 Q9.5 54.65 6.45 51.2 5.25 49.8 4.2 48.2 2.65 45.75 1.6 43 -0.05 38.55 -0.1 33.55 L-0.1 33.35 Q0.1 27.65 1.9 23.05 2.85 20.65 4.2 18.55 L5.15 17"/>
    <path stroke="none" fill="#00FF00" fill-opacity="0.5019607843137255" d="M56.15 14.75 L57.35 16.8 Q58.95 19.55 59.95 22.7 60.9 25.75 61.15 29.15 L61.2 30.05 Q61.35 34 60.35 37.75 59.5 41.1 57.8 44.15 L55.85 47.2 Q52.75 51.4 48.3 54.2 L47.35 54.8 Q43.55 57 39.15 57.7 L32.3 58.4 29.05 58.35 Q22.8 57.9 17.3 55.6 L15.4 54.65 Q11.5 52.65 8.45 49.2 L6.2 46.2 Q4.65 43.75 3.6 41 1.95 36.55 1.9 31.55 L1.9 31.35 Q2.1 25.65 3.9 21.05 4.85 18.65 6.2 16.55 L7.15 15 Q9.15 12.15 11.45 9.55 13.5 7.25 16.1 5.4 19.35 3.05 23.2 1.8 26.65 0.65 30.5 0.4 L37.8 1.05 Q41.9 1.95 45.5 4.1 L46.4 4.7 Q50.4 7.35 53.45 11 L56.15 14.75"/>
    <path stroke="none" fill="url(#gradient0)" d="M45.5 4.1 L46.4 4.7 Q50.4 7.35 53.45 11 L56.15 14.75 57.35 16.8 Q58.95 19.55 59.95 22.7 60.9 25.75 61.15 29.15 L61.2 30.05 Q61.35 34 60.35 37.75 59.5 41.1 57.8 44.15 L55.85 47.2 Q52.75 51.4 48.3 54.2 L47.35 54.8 Q43.55 57 39.15 57.7 L32.3 58.4 29.05 58.35 Q22.8 57.9 17.3 55.6 L15.4 54.65 Q11.5 52.65 8.45 49.2 L6.2 46.2 Q4.65 43.75 3.6 41 1.95 36.55 1.9 31.55 L1.9 31.35 Q2.1 25.65 3.9 21.05 4.85 18.65 6.2 16.55 L7.15 15 Q9.15 12.15 11.45 9.55 13.5 7.25 16.1 5.4 19.35 3.05 23.2 1.8 26.65 0.65 30.5 0.4 L37.8 1.05 Q41.9 1.95 45.5 4.1"/>
    <path stroke="none" fill="#FFFFFF" fill-opacity="0.6" d="M34.4 3.6 Q36.7 3.5 38.2 4.1 39.7 4.65 39.3 4.75 L37.65 5.15 37.25 4.95 33.9 4.3 Q33 3.95 34.4 3.6 M41.65 5.4 Q48.05 7.7 53.2 15.1 55.2 17.95 56.45 21.25 L57.4 24.5 Q58.6 29.7 57.65 29.7 56.65 29.7 54.9 23 L54.4 21.25 Q52.6 15.7 49.1 12.1 45.05 7.95 40.85 6.5 36.55 5 41.65 5.4"/>
  </g>
</svg>