<svg xmlns="http://www.w3.org/2000/svg" xmlns:xlink="http://www.w3.org/1999/xlink">
  <defs>
    <radialGradient gradientUnits="userSpaceOnUse" r="819.2" cx="0" cy="0" spreadMethod="pad" gradientTransform="matrix(0.0403594970703125 -0.000213623046875 0.000213623046875 0.0403594970703125 31.6 30.25)" id="gradient0">
      <stop offset="0" stop-color="#33FF00" stop-opacity="0"/>
      <stop offset="0.6274509803921569" stop-color="#33FF00" stop-opacity="0"/>
      <stop offset="1" stop-color="#33FF00"/>
    </radialGradient>
  </defs>
  <g>
    <path stroke="none" fill="#003300" fill-opacity="0.4" d="M6.95 13.95 Q2.95 20.65 2.85 29.05 2.95 37.4 6.95 44.15 10.95 50.85 17.7 54.85 24.4 58.85 32.8 58.95 41.15 58.85 47.9 54.85 L52.25 51.7 Q49.05 55.45 44.7 58.05 37.95 62.05 29.6 62.15 21.2 62.05 14.5 58.05 7.75 54.05 3.75 47.35 -0.25 40.6 -0.35 32.25 -0.25 23.85 3.75 17.15 6.35 12.75 10.1 9.55 8.35 11.55 6.95 13.95"/>
    <path stroke="none" fill="#00FF00" fill-opacity="0.5019607843137255" d="M57.4 15.15 Q61.4 21.85 61.5 30.25 61.4 38.6 57.4 45.35 53.4 52.05 46.7 56.05 39.95 60.05 31.6 60.15 23.2 60.05 16.5 56.05 9.75 52.05 5.75 45.35 1.75 38.6 1.65 30.25 1.75 21.85 5.75 15.15 9.75 8.4 16.5 4.4 23.2 0.4 31.6 0.3 39.95 0.4 46.7 4.4 53.4 8.4 57.4 15.15"/>
    <path stroke="none" fill="url(#gradient0)" d="M46.7 4.4 Q53.4 8.4 57.4 15.15 61.4 21.85 61.5 30.25 61.4 38.6 57.4 45.35 53.4 52.05 46.7 56.05 39.95 60.05 31.6 60.15 23.2 60.05 16.5 56.05 9.75 52.05 5.75 45.35 1.75 38.6 1.65 30.25 1.75 21.85 5.75 15.15 9.75 8.4 16.5 4.4 23.2 0.4 31.6 0.3 39.95 0.4 46.7 4.4"/>
    <path stroke="none" fill="#FFFFFF" fill-opacity="0.6" d="M38.1 3.8 Q39.65 4.35 39.25 4.45 L37.55 4.9 Q37.45 4.7 37.1 4.65 L33.7 4 Q32.75 3.65 34.2 3.3 L38.1 3.8 M41.65 5.15 Q48.25 7.5 53.55 15.1 55.6 18.05 56.85 21.45 L57.85 24.8 Q59.1 30.15 58.1 30.15 57.05 30.15 55.3 23.25 L54.75 21.45 Q52.9 15.75 49.3 12.05 45.15 7.75 40.8 6.25 36.4 4.75 41.65 5.15"/>
  </g>
</svg>