<svg xmlns="http://www.w3.org/2000/svg" xmlns:xlink="http://www.w3.org/1999/xlink">
  <defs>
    <radialGradient gradientUnits="userSpaceOnUse" r="819.2" cx="0" cy="0" spreadMethod="pad" gradientTransform="matrix(0.0411224365234375 -0.000213623046875 0.000213623046875 0.0411224365234375 31.4 30.1)" id="gradient0">
      <stop offset="0" stop-color="#33FF00" stop-opacity="0"/>
      <stop offset="0.6274509803921569" stop-color="#33FF00" stop-opacity="0"/>
      <stop offset="1" stop-color="#33FF00"/>
    </radialGradient>
  </defs>
  <g>
    <path stroke="none" fill="#003300" fill-opacity="0.4" d="M6.25 13.5 Q2.15 20.35 2.05 28.85 2.15 37.35 6.25 44.25 10.3 51.1 17.2 55.2 24.05 59.25 32.55 59.35 41.05 59.25 47.95 55.2 50.35 53.75 52.45 51.95 49.2 55.75 44.75 58.4 37.85 62.45 29.35 62.55 20.85 62.45 14 58.4 7.1 54.3 3.05 47.45 -1.05 40.55 -1.15 32.05 -1.05 23.55 3.05 16.7 5.7 12.25 9.5 9 7.7 11.05 6.25 13.5"/>
    <path stroke="none" fill="#00FF00" fill-opacity="0.5019607843137255" d="M57.7 14.7 Q61.75 21.55 61.85 30.05 61.75 38.55 57.7 45.45 53.6 52.3 46.75 56.4 39.85 60.45 31.35 60.55 22.85 60.45 16 56.4 9.1 52.3 5.05 45.45 0.95 38.55 0.85 30.05 0.95 21.55 5.05 14.7 9.1 7.8 16 3.75 22.85 -0.3 31.35 -0.4 39.85 -0.3 46.75 3.75 53.6 7.8 57.7 14.7"/>
    <path stroke="none" fill="url(#gradient0)" d="M46.75 3.75 Q53.6 7.8 57.65 14.7 61.75 21.55 61.85 30.1 61.75 38.6 57.65 45.45 53.6 52.3 46.75 56.4 39.9 60.45 31.4 60.55 22.8 60.45 16 56.4 9.1 52.3 5.05 45.45 0.95 38.6 0.85 30.1 0.95 21.55 5.05 14.7 9.1 7.8 16 3.75 22.8 -0.35 31.4 -0.45 39.9 -0.35 46.75 3.75"/>
    <path stroke="none" fill="#FFFFFF" fill-opacity="0.6" d="M38 3.15 Q39.55 3.7 39.15 3.8 L37.45 4.25 Q37.35 4.05 36.95 4 L33.5 3.35 Q32.55 3 34 2.65 36.4 2.55 38 3.15 M41.6 4.5 Q48.35 6.9 53.75 14.65 55.8 17.65 57.1 21.15 L58.1 24.55 Q59.4 30 58.35 30 57.3 30 55.5 22.95 L54.95 21.15 Q53.05 15.3 49.4 11.55 45.15 7.15 40.75 5.65 36.25 4.1 41.6 4.5"/>
  </g>
</svg>