<svg xmlns="http://www.w3.org/2000/svg" xmlns:xlink="http://www.w3.org/1999/xlink">
  <defs>
    <radialGradient gradientUnits="userSpaceOnUse" r="819.2" cx="0" cy="0" spreadMethod="pad" gradientTransform="matrix(0.0197296142578125 -0.0075531005859375 0.005767822265625 0.0151214599609375 33.05 26.45)" id="gradient0">
      <stop offset="0" stop-color="#33FF00" stop-opacity="0"/>
      <stop offset="0.6274509803921569" stop-color="#33FF00" stop-opacity="0"/>
      <stop offset="1" stop-color="#33FF00"/>
    </radialGradient>
  </defs>
  <g>
    <path stroke="none" fill="#839982" d="M43 35.55 L42.9 35.55 42.95 35.5 43.25 35.3 43 35.55 M21.1 22.75 L20.9 22.6 21.1 22.3 Q22.35 19.9 24.35 18.25 23.4 19.35 22.7 20.7 L22.5 21 21.1 22.75"/>
    <path stroke="none" fill="#003300" fill-opacity="0.4" d="M21.1 22.75 L20.9 22.9 Q19.75 24.05 18.9 25.7 18 27.55 18.2 30.55 L18.2 30.6 Q18.4 32.5 19.85 34.4 L21.1 35.8 23.1 37.35 Q25 38.5 26.95 38.8 L27.75 38.85 31.15 39 33.95 38.95 35.2 38.85 Q39.65 38.1 42.9 35.55 L43 35.55 41.3 37.15 Q38.05 39.7 33.6 40.45 L32.35 40.55 29.55 40.6 26.15 40.45 25.35 40.4 Q23.4 40.1 21.5 38.95 L19.5 37.4 18.25 36 Q16.8 34.1 16.6 32.2 L16.6 32.15 Q16.4 29.15 17.3 27.3 18.15 25.65 19.3 24.5 L20.9 22.6 21.1 22.75"/>
    <path stroke="none" fill="#00FF00" fill-opacity="0.5019607843137255" d="M44.6 19.55 Q46.2 21.9 46.7 24.8 46.95 26.65 46.8 28.45 46.3 32 44 34.55 L42.3 36.15 Q39.05 38.7 34.6 39.45 L33.35 39.55 30.55 39.6 27.15 39.45 26.35 39.4 Q24.4 39.1 22.5 37.95 L20.5 36.4 19.25 35 Q17.8 33.1 17.6 31.2 L17.6 31.15 Q17.4 28.15 18.3 26.3 19.15 24.65 20.3 23.5 L21.9 21.6 22.1 21.3 Q24.2 17.25 28.3 15.4 L30 14.75 37.1 14.35 Q39.4 14.8 41.2 16.05 43.2 17.45 44.6 19.55"/>
    <path stroke="none" fill="url(#gradient0)" d="M41.2 16.05 Q43.2 17.45 44.6 19.55 46.2 21.9 46.7 24.8 46.95 26.65 46.8 28.45 46.3 32 44 34.55 L42.3 36.15 Q39.05 38.7 34.6 39.45 L33.35 39.55 30.55 39.6 27.15 39.45 26.35 39.4 Q24.4 39.1 22.5 37.95 L20.5 36.4 19.25 35 Q17.8 33.1 17.6 31.2 L17.6 31.15 Q17.4 28.15 18.3 26.3 19.15 24.65 20.3 23.5 L21.9 21.6 22.1 21.3 Q24.2 17.25 28.3 15.4 L30 14.75 37.1 14.35 Q39.4 14.8 41.2 16.05"/>
    <path stroke="none" fill="#FFFFFF" fill-opacity="0.6" d="M44.4 23.7 L43.55 22.15 Q41.2 18.05 36.85 16.6 L31.35 16 32 15.7 34.25 15.2 37.8 15.8 Q41.35 16.5 43.2 19.5 L43.3 19.8 44.45 22.85 44.65 23.4 Q44.85 23.65 44.55 23.9 L44.4 23.7"/>
    <path stroke="none" fill="#FFFFFF" fill-opacity="0.6" d="M25 26.1 L25.05 26.35 25.05 26.55 24.85 26.7 24.65 26.8 23.75 26.05 Q23.25 26.05 23.05 25.7 23.35 25.3 23.9 25.4 24.5 25.55 24.9 26 L25 26.1"/>
  </g>
</svg>