<svg xmlns="http://www.w3.org/2000/svg" xmlns:xlink="http://www.w3.org/1999/xlink">
  <defs>
    <radialGradient gradientUnits="userSpaceOnUse" r="819.2" cx="0" cy="0" spreadMethod="pad" gradientTransform="matrix(0.025909423828125 -0.009765625 0.0071563720703125 0.0189971923828125 32.8 27.55)" id="gradient0">
      <stop offset="0" stop-color="#33FF00" stop-opacity="0"/>
      <stop offset="0.6274509803921569" stop-color="#33FF00" stop-opacity="0"/>
      <stop offset="1" stop-color="#33FF00"/>
    </radialGradient>
  </defs>
  <g>
    <path stroke="none" fill="#003300" fill-opacity="0.4" d="M16.95 26.4 L15.9 27.95 Q14.7 30 15.1 33.8 L15.1 33.85 Q15.5 36.2 17.45 38.2 L19.2 39.7 Q20.4 40.65 21.9 41.2 24.5 42.25 26.9 41.9 L28 41.7 32.15 40.95 35.45 40.6 37 40.45 Q42.25 39.65 46.05 36.5 L44.55 38 Q40.75 41.25 35.4 42.05 L33.85 42.2 30.55 42.55 26.4 43.3 25.3 43.5 Q22.9 43.85 20.3 42.8 18.8 42.25 17.6 41.3 16.65 40.65 15.85 39.8 13.9 37.8 13.5 35.45 L13.5 35.4 Q13.1 31.6 14.3 29.55 15.4 27.6 16.9 26.35 L16.95 26.4 M18.45 24.7 L18.8 24.15 19 23.7 Q20.5 19.5 23.6 16.85 21.7 19.05 20.6 22.1 L20.4 22.55 Q19.7 23.75 18.5 24.75 L18.45 24.7"/>
    <path stroke="none" fill="#839982" d="M18.45 24.7 L18.5 24.75 18.25 25 18.45 24.7 M16.9 26.35 L17.1 26.2 16.95 26.4 16.9 26.35"/>
    <path stroke="none" fill="#00FF00" fill-opacity="0.5019607843137255" d="M46.7 17.15 Q49 19.8 49.85 23.15 50.35 25.2 50.35 27.45 50 31.8 47.45 35 L45.55 37 Q41.75 40.25 36.4 41.05 L34.85 41.2 31.55 41.55 27.4 42.3 26.3 42.5 Q23.9 42.85 21.3 41.8 19.8 41.25 18.6 40.3 L16.85 38.8 Q14.9 36.8 14.5 34.45 L14.5 34.4 Q14.1 30.6 15.3 28.55 16.4 26.6 17.9 25.35 19.1 24.35 19.8 23.15 L20 22.7 Q21.9 17.35 26.35 14.55 27.25 13.95 28.25 13.5 32.15 11.85 36.8 12.15 39.7 12.4 42.05 13.6 44.7 14.9 46.7 17.15"/>
    <path stroke="none" fill="url(#gradient0)" d="M46.7 17.15 Q49 19.8 49.85 23.15 50.35 25.2 50.35 27.45 50 31.8 47.45 35 L45.55 37 Q41.75 40.25 36.4 41.05 L34.85 41.2 31.55 41.55 27.4 42.3 26.3 42.5 Q23.9 42.85 21.3 41.8 19.8 41.25 18.6 40.3 L16.85 38.8 Q14.9 36.8 14.5 34.45 L14.5 34.4 Q14.1 30.6 15.3 28.55 16.4 26.6 17.9 25.35 19.1 24.35 19.8 23.15 L20 22.7 Q21.9 17.35 26.35 14.55 27.25 13.95 28.25 13.5 32.15 11.85 36.8 12.15 39.7 12.4 42.05 13.6 44.7 14.9 46.7 17.15"/>
    <path stroke="none" fill="#FFFFFF" fill-opacity="0.6" d="M45.55 19 Q48.95 23.15 47.55 28.05 47.8 23.9 45.05 20.4 41.15 15.45 34.95 14.2 41.4 13.95 45.55 19 M17.2 28.9 L16.9 28.65 Q17.4 27.55 18.6 27.05 L19.15 26.9 19.2 26.8 19.25 26.75 20.3 26.6 20.4 26.6 20.45 26.65 20.5 26.75 Q19.1 27.2 18.1 28.25 L17.2 28.9"/>
  </g>
</svg>