<svg xmlns="http://www.w3.org/2000/svg" xmlns:xlink="http://www.w3.org/1999/xlink">
  <defs>
    <radialGradient gradientUnits="userSpaceOnUse" r="819.2" cx="0" cy="0" spreadMethod="pad" gradientTransform="matrix(0.026824951171875 -0.0130462646484375 0.0095672607421875 0.0196685791015625 32.6 28.2)" id="gradient0">
      <stop offset="0" stop-color="#33FF00" stop-opacity="0"/>
      <stop offset="0.6274509803921569" stop-color="#33FF00" stop-opacity="0"/>
      <stop offset="1" stop-color="#33FF00"/>
    </radialGradient>
  </defs>
  <g>
    <path stroke="none" fill="#003300" fill-opacity="0.4" d="M46.7 38.6 Q42.55 42.3 36.65 43.15 L34.9 43.35 31.2 43.9 26.55 45.2 25.3 45.6 19.5 45.45 Q17.75 44.95 16.25 44 L14.2 42.45 Q11.9 40.35 11.45 37.6 10.85 33.3 12.2 31.1 13.4 29.15 14.95 27.9 14.3 28.65 13.8 29.5 12.45 31.7 13.05 36 13.5 38.75 15.8 40.85 L17.85 42.4 Q19.35 43.35 21.1 43.85 L26.9 44 28.15 43.6 32.8 42.3 Q34.5 41.8 36.5 41.75 L38.25 41.55 Q44.05 40.7 48.15 37.15 L46.7 38.6 M16.85 26.05 L17.35 25.2 17.55 24.7 Q19.1 19.15 22.95 15.8 20.35 18.8 19.15 23.1 L18.95 23.6 Q18.3 24.95 16.85 26.05"/>
    <path stroke="none" fill="#00FF00" fill-opacity="0.5019607843137255" d="M48.15 15.55 Q50.9 18.35 52.05 21.95 52.7 24.25 52.75 26.75 52.55 31.65 49.85 35.3 L47.7 37.6 Q43.55 41.3 37.65 42.15 L35.9 42.35 32.2 42.9 27.55 44.2 26.3 44.6 20.5 44.45 Q18.75 43.95 17.25 43 16.15 42.3 15.2 41.45 12.9 39.35 12.45 36.6 11.85 32.3 13.2 30.1 14.5 27.95 16.25 26.65 17.7 25.55 18.35 24.2 L18.55 23.7 Q20.3 17.4 25 13.95 26 13.25 27.1 12.65 31.2 10.55 36.55 10.6 39.9 10.75 42.65 11.85 45.7 13.15 48.15 15.55"/>
    <path stroke="none" fill="url(#gradient0)" d="M48.15 15.55 Q50.9 18.35 52.05 21.95 52.7 24.25 52.75 26.75 52.55 31.65 49.85 35.3 L47.7 37.6 Q43.55 41.3 37.65 42.15 L35.9 42.35 32.2 42.9 27.55 44.2 26.3 44.6 20.5 44.45 Q18.75 43.95 17.25 43 16.15 42.3 15.2 41.45 12.9 39.35 12.45 36.6 11.85 32.3 13.2 30.1 14.5 27.95 16.25 26.65 17.7 25.55 18.35 24.2 L18.55 23.7 Q20.3 17.4 25 13.95 26 13.25 27.1 12.65 31.2 10.55 36.55 10.6 39.9 10.75 42.65 11.85 45.7 13.15 48.15 15.55"/>
    <path stroke="none" fill="#FFFFFF" fill-opacity="0.6" d="M47.15 18.15 Q50.8 22.55 49.3 27.85 49.55 23.4 46.6 19.6 42.4 14.35 35.75 13 42.7 12.7 47.15 18.15 M16.8 28.7 L16.45 28.5 Q16.95 27.3 18.3 26.75 L18.85 26.6 18.9 26.5 18.95 26.45 20.05 26.25 20.2 26.25 20.25 26.35 20.3 26.45 Q18.8 26.95 17.75 28.05 L16.8 28.7"/>
  </g>
</svg>