<svg xmlns="http://www.w3.org/2000/svg" xmlns:xlink="http://www.w3.org/1999/xlink">
  <defs>
    <radialGradient gradientUnits="userSpaceOnUse" r="819.2" cx="0" cy="0" spreadMethod="pad" gradientTransform="matrix(0.02789306640625 -0.0105133056640625 0.0077056884765625 0.02044677734375 33.5 29)" id="gradient0">
      <stop offset="0" stop-color="#33FF00" stop-opacity="0"/>
      <stop offset="0.6274509803921569" stop-color="#33FF00" stop-opacity="0"/>
      <stop offset="1" stop-color="#33FF00"/>
    </radialGradient>
  </defs>
  <g>
    <path stroke="none" fill="#003300" fill-opacity="0.4" d="M47.9 38.9 Q42.9 43.4 35.45 43.95 33.35 44 31.55 44.6 L25.3 46.75 19.05 46.9 Q15.75 46 13.3 43.85 10.85 41.7 10.3 38.8 9.65 34.2 11.1 31.95 12.3 30 13.85 28.75 L12.7 30.35 Q11.25 32.6 11.9 37.2 12.45 40.1 14.9 42.25 17.35 44.4 20.65 45.3 L26.9 45.15 33.15 43 Q34.95 42.4 37.05 42.35 44.35 41.8 49.3 37.5 L47.9 38.9 M16.8 25.2 Q18.3 18.95 22.6 15.2 19.6 18.6 18.4 23.6 17.8 25.4 16.05 26.7 L16.8 25.2"/>
    <path stroke="none" fill="#00FF00" fill-opacity="0.5019607843137255" d="M48.9 14.65 Q53.85 19.35 54.05 26.4 53.85 33.35 48.9 37.9 43.9 42.4 36.45 42.95 34.35 43 32.55 43.6 L26.3 45.75 20.05 45.9 Q16.75 45 14.3 42.85 11.85 40.7 11.3 37.8 10.65 33.2 12.1 30.95 13.5 28.7 15.35 27.35 17.2 26 17.8 24.2 19.45 17.45 24.25 13.65 29.1 9.85 36.45 9.8 43.9 9.95 48.9 14.65"/>
    <path stroke="none" fill="url(#gradient0)" d="M36.45 9.8 Q43.9 9.95 48.9 14.65 53.85 19.35 54.05 26.4 53.85 33.35 48.9 37.9 43.9 42.4 36.45 42.95 34.35 43 32.55 43.6 L26.3 45.75 20.05 45.9 Q16.75 45 14.3 42.85 11.85 40.7 11.3 37.8 10.65 33.2 12.1 30.95 13.5 28.7 15.35 27.35 17.2 26 17.8 24.2 19.45 17.45 24.25 13.65 29.1 9.85 36.45 9.8"/>
    <path stroke="none" fill="#FFFFFF" fill-opacity="0.6" d="M49.6 17.55 Q53.6 22.4 51.95 28.2 52.25 23.3 49 19.15 44.4 13.35 37.1 11.9 44.7 11.55 49.6 17.55 M16.25 29.15 L15.9 28.9 Q16.45 27.6 17.9 27 L18.5 26.8 18.6 26.7 18.65 26.65 19.85 26.45 20 26.45 20.05 26.55 20.1 26.65 Q18.45 27.2 17.3 28.4 L16.25 29.15"/>
  </g>
</svg>