<svg xmlns="http://www.w3.org/2000/svg" xmlns:xlink="http://www.w3.org/1999/xlink">
  <defs>
    <radialGradient gradientUnits="userSpaceOnUse" r="819.2" cx="0" cy="0" spreadMethod="pad" gradientTransform="matrix(0.0263519287109375 -0.0099334716796875 0.0072784423828125 0.0193328857421875 33.5 29)" id="gradient0">
      <stop offset="0" stop-color="#33FF00" stop-opacity="0"/>
      <stop offset="0.6274509803921569" stop-color="#33FF00" stop-opacity="0"/>
      <stop offset="1" stop-color="#33FF00"/>
    </radialGradient>
  </defs>
  <g>
    <path stroke="none" fill="#003300" fill-opacity="0.4" d="M16.9 26.75 L17.6 25.45 Q19.05 19.4 23.15 15.9 20.35 19.1 19.2 23.85 18.6 25.45 16.9 26.75 M48.4 37.1 L47.1 38.4 Q42.35 42.65 35.25 43.15 33.3 43.25 31.55 43.8 L25.65 45.85 Q22.85 46.8 19.75 45.95 16.6 45.15 14.3 43.1 11.9 41.05 11.4 38.3 10.8 33.95 12.15 31.8 13.3 29.95 14.8 28.75 L13.75 30.2 Q12.4 32.35 13 36.7 13.5 39.45 15.9 41.5 18.2 43.55 21.35 44.35 24.45 45.2 27.25 44.25 L33.15 42.2 36.85 41.55 Q43.7 41.05 48.4 37.1"/>
    <path stroke="none" fill="#00FF00" fill-opacity="0.5019607843137255" d="M52.95 26.5 Q52.75 33.1 48.1 37.4 43.35 41.65 36.25 42.15 L32.55 42.8 26.65 44.85 Q23.85 45.8 20.75 44.95 17.6 44.15 15.3 42.1 12.9 40.05 12.4 37.3 11.8 32.95 13.15 30.8 14.5 28.65 16.25 27.4 18 26.1 18.6 24.45 20.15 18 24.7 14.4 29.3 10.8 36.25 10.75 43.35 10.9 48.1 15.35 52.8 19.8 52.95 26.5"/>
    <path stroke="none" fill="url(#gradient0)" d="M52.95 26.5 Q52.75 33.1 48.1 37.4 43.35 41.65 36.25 42.15 L32.55 42.8 26.65 44.85 Q23.85 45.8 20.75 44.95 17.6 44.15 15.3 42.1 12.9 40.05 12.4 37.3 11.8 32.95 13.15 30.8 14.5 28.65 16.25 27.4 18 26.1 18.6 24.45 20.15 18 24.7 14.4 29.3 10.8 36.25 10.75 43.35 10.9 48.1 15.35 52.8 19.8 52.95 26.5"/>
    <path stroke="none" fill="#FFFFFF" fill-opacity="0.6" d="M48.4 17.8 Q52.2 22.35 50.65 27.85 50.9 23.2 47.85 19.3 43.5 13.8 36.6 12.45 43.8 12.1 48.4 17.8 M16.9 28.75 L16.6 28.5 Q17.1 27.3 18.45 26.7 L19.05 26.55 19.15 26.45 19.2 26.4 20.3 26.2 20.45 26.2 20.5 26.3 20.55 26.4 Q19 26.9 17.9 28.05 L16.9 28.75"/>
  </g>
</svg>