<svg xmlns="http://www.w3.org/2000/svg" xmlns:xlink="http://www.w3.org/1999/xlink">
  <defs>
    <radialGradient gradientUnits="userSpaceOnUse" r="819.2" cx="0" cy="0" spreadMethod="pad" gradientTransform="matrix(0.0148773193359375 -0.001678466796875 0.0014801025390625 0.01318359375 32.15 26.15)" id="gradient0">
      <stop offset="0" stop-color="#33FF00" stop-opacity="0"/>
      <stop offset="0.6274509803921569" stop-color="#33FF00" stop-opacity="0"/>
      <stop offset="1" stop-color="#33FF00"/>
    </radialGradient>
    <radialGradient gradientUnits="userSpaceOnUse" r="819.2" cx="0" cy="0" spreadMethod="pad" gradientTransform="matrix(-0.0004119873046875 -0.003204345703125 0.002716064453125 -0.0003509521484375 21.85 34.65)" id="gradient1">
      <stop offset="0" stop-color="#33FF00" stop-opacity="0"/>
      <stop offset="0.6274509803921569" stop-color="#33FF00" stop-opacity="0"/>
      <stop offset="1" stop-color="#33FF00"/>
    </radialGradient>
  </defs>
  <g>
    <path stroke="none" fill="url(#gradient0)" d="M32.25 16.35 Q37.6 16.15 40.1 19.35 42.55 22.55 42.55 27.05 42.4 31.35 39.45 34 36.45 36.55 32.25 37.3 29.25 37.65 26.85 35.75 24.45 33.8 23.05 31.2 21.6 28.6 21.6 26.9 21.8 22.45 24.65 19.6 27.5 16.7 32.25 16.35"/>
    <path stroke="none" fill="url(#gradient1)" d="M23.15 36.85 L21.65 37.15 Q19.8 36.95 19.65 34.75 19.45 32.6 21.65 32.35 23.4 32.55 23.65 34.75 23.75 36.45 23.15 36.85"/>
    <path stroke="none" fill="#FFFFFF" fill-opacity="0.6" d="M30.65 18.3 L32.6 17.9 35.6 18.4 Q38.65 19 40.2 21.55 L40.3 21.8 41.25 24.4 41.45 24.85 Q41.6 25.1 41.35 25.3 L41.2 25.1 40.5 23.8 Q38.5 20.35 34.8 19.1 L30.1 18.55 30.65 18.3 M22.85 33.9 L22.9 34.15 22.9 34.35 22.7 34.5 22.5 34.6 21.6 33.85 Q21.1 33.85 20.9 33.5 21.2 33.1 21.75 33.2 L22.75 33.8 22.85 33.9"/>
  </g>
</svg>