<svg xmlns="http://www.w3.org/2000/svg" xmlns:xlink="http://www.w3.org/1999/xlink">
  <defs>
    <radialGradient gradientUnits="userSpaceOnUse" r="819.2" cx="0" cy="0" spreadMethod="pad" gradientTransform="matrix(0.0148773193359375 -0.001678466796875 0.0014801025390625 0.01318359375 32.15 26.15)" id="gradient0">
      <stop offset="0" stop-color="#33FF00" stop-opacity="0"/>
      <stop offset="0.6274509803921569" stop-color="#33FF00" stop-opacity="0"/>
      <stop offset="1" stop-color="#33FF00"/>
    </radialGradient>
    <radialGradient gradientUnits="userSpaceOnUse" r="819.2" cx="0" cy="0" spreadMethod="pad" gradientTransform="matrix(-0.0004119873046875 -0.003204345703125 0.002716064453125 -0.0003509521484375 21.85 34.65)" id="gradient1">
      <stop offset="0" stop-color="#33FF00" stop-opacity="0"/>
      <stop offset="0.6274509803921569" stop-color="#33FF00" stop-opacity="0"/>
      <stop offset="1" stop-color="#33FF00"/>
    </radialGradient>
  </defs>
  <g>
    <path stroke="none" fill="#003300" fill-opacity="0.4" d="M25.7 20.25 Q23.65 22.65 23.5 26.15 23.5 27.65 24.75 29.95 25.95 32.25 28.1 33.95 30.2 35.65 32.8 35.35 36.05 34.75 38.5 32.95 L37.55 33.9 Q34.95 36.15 31.2 36.85 28.6 37.15 26.5 35.45 24.35 33.75 23.15 31.45 21.9 29.15 21.9 27.65 22.05 23.75 24.55 21.25 L25.7 20.25"/>
    <path stroke="none" fill="#00FF00" fill-opacity="0.5019607843137255" d="M41.3 26.9 Q41.15 30.7 38.55 33 35.95 35.25 32.2 35.95 29.6 36.25 27.5 34.55 25.35 32.85 24.15 30.55 22.9 28.25 22.9 26.75 23.05 22.85 25.55 20.35 28.05 17.75 32.2 17.45 36.95 17.3 39.15 20.1 41.3 22.9 41.3 26.9 M21.65 37.15 Q19.8 36.95 19.65 34.75 19.45 32.6 21.65 32.35 23.4 32.55 23.65 34.75 23.75 36.45 23.15 36.85 L21.65 37.15"/>
    <path stroke="none" fill="url(#gradient0)" d="M41.3 26.9 Q41.15 30.7 38.55 33 35.95 35.25 32.2 35.95 29.6 36.25 27.5 34.55 25.35 32.85 24.15 30.55 22.9 28.25 22.9 26.75 23.05 22.85 25.55 20.35 28.05 17.75 32.2 17.45 36.95 17.3 39.15 20.1 41.3 22.9 41.3 26.9"/>
    <path stroke="none" fill="url(#gradient1)" d="M19.65 34.75 Q19.45 32.6 21.65 32.35 23.4 32.55 23.65 34.75 23.75 36.45 23.15 36.85 L21.65 37.15 Q19.8 36.95 19.65 34.75"/>
    <path stroke="none" fill="#FFFFFF" fill-opacity="0.6" d="M34.5 19.5 L30.4 19 30.9 18.8 32.6 18.45 35.2 18.85 Q37.85 19.35 39.2 21.6 L39.3 21.85 40.15 24.1 40.3 24.5 40.2 24.9 40.1 24.7 39.5 23.6 Q37.75 20.55 34.5 19.5 M22.85 33.9 L22.9 34.15 22.9 34.35 22.7 34.5 22.5 34.6 21.6 33.85 Q21.1 33.85 20.9 33.5 21.2 33.1 21.75 33.2 L22.75 33.8 22.85 33.9"/>
  </g>
</svg>